<?xml version="1.0" encoding="UTF-8" standalone="no"?>
<svg width="1087px" height="372px" viewBox="0 0 1087 372" version="1.1" xmlns="http://www.w3.org/2000/svg" xmlns:xlink="http://www.w3.org/1999/xlink">
    <!-- Generator: Sketch 3.8.3 (29802) - http://www.bohemiancoding.com/sketch -->
    <title>anahkay-logo-horizontal</title>
    <desc>Created with Sketch.</desc>
    <defs></defs>
    <g id="issue-01-grid" stroke="none" stroke-width="1" fill="none" fill-rule="evenodd">
        <g id="LANDING" transform="translate(-176.000000, -327.000000)" fill="#FFFFFF">
            <g id="anahkay-logo-horizontal" transform="translate(176.000000, 327.000000)">
                <g>
                    <path d="M60.9919242,35.7930748 C63.1124294,34.7696835 64.6481232,33.6403463 66.3454294,33.2856909 C70.6383062,32.3892842 70.0715352,29.4558629 69.0439809,26.776411 C67.9367479,23.8888244 66.1635215,21.2567099 64.6804457,18.5133899 C64.3910467,18.5456996 64.1016477,18.5787607 63.8122487,18.6110705 C62.9132327,24.0864396 62.0149683,29.5618087 60.9919242,35.7930748 L60.9919242,35.7930748 Z M38.4473681,131.378728 C37.0980923,131.378728 36.1840426,131.191633 35.3789873,131.407281 C27.2029024,133.602087 19.0147906,135.766087 10.9168811,138.225382 C9.88030655,138.540214 8.64453534,140.525383 8.71143536,141.665991 C8.85275227,144.079451 9.82768856,146.43806 10.400473,148.833487 C12.9156132,159.339403 19.8672021,165.920816 29.41812,170.075996 C31.3687443,170.924313 33.0066673,170.428397 33.2006022,167.629474 C33.3855169,164.957536 34.1492295,162.32993 34.5273274,159.664754 C35.8480391,150.36106 37.1123744,141.0491 38.4473681,131.378728 L38.4473681,131.378728 Z M116.035609,155.58772 C117.427731,153.914377 118.235793,153.172756 118.766483,152.268084 C122.352776,146.152532 126.003713,140.070792 129.389305,133.845537 C132.546385,128.039557 135.776378,122.222306 138.256941,116.118776 C139.900126,112.076305 140.366171,107.537166 141.199038,103.189632 C141.923663,99.4071412 142.423534,95.5818215 143.162441,90.888648 C138.511762,92.7145224 134.557144,94.1872442 130.665667,95.8109951 C121.301167,99.7167133 111.927647,103.606652 102.66688,107.746052 C101.446143,108.291561 99.864596,110.543472 100.144975,111.516521 C101.682924,116.843866 103.786892,122.005906 105.622508,127.250599 C107.036429,131.292319 108.239126,135.409929 109.72145,139.42535 C111.626973,144.58739 113.717411,149.681053 116.035609,155.58772 L116.035609,155.58772 Z M54.2508072,47.0947116 C53.1014799,47.7641989 52.0446099,48.1316279 51.3229916,48.8401874 C45.9552044,54.1141844 40.6152295,59.4182369 35.3504232,64.7959255 C33.4486585,66.7390166 31.6664118,68.8233687 30.025482,70.991125 C25.9994537,76.3079511 21.7809938,81.4482009 18.8291242,87.5660073 C16.9499101,91.4604547 10.6079383,105.314559 9.66908288,109.21126 C7.91540026,116.489211 7.2110708,123.785195 7.57639003,131.291567 C7.7297339,134.439886 9.20454115,134.836619 11.2280789,134.189673 C19.8980212,131.418552 28.5018152,128.437042 37.0838103,125.402183 C37.93096,125.102379 38.8840975,124.008357 39.078784,123.126227 C41.1669668,113.660984 43.2010282,104.181465 45.0772355,94.6718899 C48.1606501,79.0437572 51.1155264,63.3900774 54.2508072,47.0947116 L54.2508072,47.0947116 Z M71.0908209,37.3176424 C68.0036479,38.7392698 65.6561337,39.8077444 63.319143,40.8987607 C60.6356252,42.152077 58.1392771,43.3264975 58.2031704,47.1202588 C58.2512783,49.9943204 57.5807747,52.9164709 56.9666475,55.7597256 C54.6439388,66.5136 52.1956987,77.2396731 49.8474327,87.9875364 C49.5339798,89.4226887 49.6347057,90.9457535 49.3535752,92.3914253 C47.4976633,101.928801 45.5598177,111.449647 43.8008733,121.004305 C43.7264564,121.410055 45.3929435,122.724234 45.8469617,122.552917 C54.2229949,119.391074 62.4599663,115.849028 70.8893692,112.846479 C77.6943794,110.422499 84.6985863,108.54553 91.6516786,106.556604 C93.9946827,105.886366 95.1327348,104.873494 94.2269536,102.318772 C90.0325477,90.4881578 85.7216305,78.6958643 81.7640055,66.7863541 C79.0383933,58.5864497 76.9126263,50.1889301 74.3035254,41.9484507 C73.785614,40.313429 72.2844977,38.9902336 71.0908209,37.3176424 L71.0908209,37.3176424 Z M142.38595,77.6679646 C142.878304,68.808341 138.358418,62.5725665 135.290789,56.1632213 C132.692964,50.7351896 127.841584,46.2644271 123.538936,41.8019299 C117.320992,35.3535125 109.185498,32.1518454 100.564415,30.8008486 C97.1111715,30.2598488 92.9551015,28.2942161 89.5259115,31.9775232 C88.8358641,32.7183925 86.7664735,32.0669385 85.3675865,32.2810843 C82.5532754,32.7101272 79.737461,33.197027 76.9840364,33.902581 C76.4909306,34.0288143 75.885072,35.4136236 76.0301473,36.0598178 C77.2501332,41.4923578 78.2528818,47.0188213 80.0606858,52.2627628 C82.4435293,59.1755384 85.5705416,65.8298363 88.2412808,72.6486884 C90.5008478,78.4155963 90.7752131,84.7445429 93.6338736,90.4257926 C95.5807395,94.2946927 96.2903307,98.7744719 97.7688964,102.903353 C97.9936504,103.530762 99.5233307,104.237067 100.223902,104.052977 C103.282511,103.245986 106.361415,102.354839 109.245633,101.073721 C118.026073,97.1725113 126.630619,92.8648001 135.485476,89.1461777 C139.786621,87.3405907 142.700906,85.0653859 142.555079,80.0957013 C142.520502,78.9212809 142.391963,77.7498659 142.38595,77.6679646 L142.38595,77.6679646 Z M42.3305762,128.843543 C41.6608243,132.747007 41.058724,136.570073 40.3348508,140.369845 C39.7793551,143.28373 38.8389963,146.139759 38.4751805,149.071677 C37.6596015,155.635808 36.9522653,162.22173 36.5215494,168.819674 C36.3997764,170.683118 36.4027831,172.986875 39.3741965,173.650351 C42.3042672,174.30406 45.0366445,175.795566 47.9441646,176.602557 C57.6168556,179.289523 67.3128488,178.890536 76.8111487,175.90602 C82.1864528,174.21765 87.3294861,171.800433 92.6085744,169.796479 C97.7846818,167.830846 103.065274,166.128951 108.174481,164.010035 C111.18423,162.761978 112.899577,160.653582 111.544288,156.88687 C109.126115,150.168705 107.048456,143.327311 104.830983,136.537012 C102.460918,129.2801 99.8337769,122.093067 97.8433133,114.733967 C96.933022,111.365492 95.2011382,110.333084 92.2928664,111.043146 C81.5490234,113.667746 71.0818007,117.154941 60.8724062,121.430343 C54.7627052,123.988821 48.5725738,126.355695 42.3305762,128.843543 L42.3305762,128.843543 Z M0.00015033713,135.790131 C1.92972741,135.593267 2.72050071,135.526394 2.14245445,132.706432 C0.966818086,126.970331 0.424101045,120.957719 2.54686133,115.187054 C2.70697037,114.754254 3.70370555,114.628773 3.90440562,114.539357 C3.5909527,113.283787 2.95201989,112.161212 3.12039748,111.176893 C4.53281482,102.9289 6.80967066,94.99123 12.0759803,88.2279807 C12.4397962,87.760617 12.4766288,87.0535603 12.7833165,86.5260854 C14.4092126,83.7294169 15.9441547,80.8681289 17.751207,78.1916825 C20.7752384,73.7134061 23.7383832,69.1569853 27.1780968,65.0070657 C30.8538396,60.5723699 34.7956792,56.2826921 39.0915627,52.456621 C43.9933048,48.091053 49.5054157,44.4152597 54.5424613,40.1894499 C55.7218561,39.2013738 56.3555271,37.2755647 56.7261081,35.6630846 C57.9926984,30.1508974 59.0969246,24.5981353 60.1372576,19.0371078 C61.0813748,13.99529 61.7872076,8.90838876 62.7719158,3.87483616 C62.9899046,2.76052678 63.9385319,1.78898125 64.5504041,0.751313516 C65.1765582,1.7063285 66.5040351,2.83641703 66.315362,3.5870543 C64.9638312,8.98352762 68.9800876,12.9140417 69.9106744,17.6583096 C70.3504105,19.9034589 71.3088098,22.0554361 72.1191269,24.2171812 C73.2000509,27.0995081 74.775584,28.1484467 78.3032448,27.5255455 C85.0721741,26.3300861 92.119227,24.9986254 98.8415518,25.7071849 C106.145681,26.4773583 113.55655,28.750309 120.259331,31.8137205 C124.720585,33.8529893 128.385805,38.1073519 131.754108,41.9439424 C136.078556,46.8685436 140.293257,52.0576337 143.524002,57.7200986 C146.056431,62.1593027 147.18847,67.4445705 148.597129,72.4510732 C149.130825,74.3475781 148.422737,76.5626719 148.763251,78.5500949 C149.38715,82.196584 150.452289,82.7120366 153.646953,80.8756428 C159.830319,77.320823 165.808475,73.3978229 172.081292,70.0158225 C174.325825,68.8053354 177.175465,68.7159201 179.78607,68.1065439 C181.57884,73.1295771 177.591899,73.5939353 175.825438,74.648885 C170.380227,77.9008951 164.582476,80.5856067 158.819302,83.2718212 C156.626635,84.2944611 154.070903,84.528143 151.850424,85.5072024 C150.737929,85.9971078 149.409701,87.2429102 149.205994,88.3376835 C148.234064,93.5500666 147.682327,98.8390913 146.845701,104.079276 C146.365374,107.084079 145.843704,110.113678 144.950701,113.012536 C143.743494,116.928022 142.492689,120.8931 140.667597,124.541092 C137.334622,131.205158 133.69045,137.723454 129.938036,144.165109 C127.174087,148.91088 124.631887,154.006046 120.914801,157.926041 C115.631203,163.497588 119.600103,168.227579 121.233516,173.040224 C124.656692,183.123108 128.568464,193.041438 132.350195,202.999592 C134.330887,208.215732 136.693435,213.298125 138.441855,218.58715 C139.540068,221.911293 139.857279,225.500677 140.454118,228.982612 C140.854015,231.314922 141.130635,233.66752 141.46288,236.011101 C141.136648,236.121556 140.810417,236.23201 140.483434,236.342464 C139.122131,233.499961 137.462409,230.758143 136.45515,227.795418 C133.646101,219.532397 131.338426,211.095054 128.402342,202.880873 C124.880695,193.030168 120.914049,183.338757 117.133071,173.581224 C117.045123,173.355056 116.815107,173.182236 116.73618,172.955317 C114.183456,165.566912 113.388924,165.324214 106.282488,168.59576 C103.50952,169.872369 100.411823,170.422386 97.5456458,171.520916 C92.6566823,173.394128 87.8398806,175.455187 82.9817363,177.408797 C74.9747807,180.629249 66.7618632,182.542285 58.0663636,181.119906 C51.1591242,179.990569 44.2721802,178.72523 37.3431419,177.763453 C36.5238045,177.649993 34.76035,178.997984 34.6746578,179.801219 C34.0590272,185.54258 33.9349991,191.337289 33.2975697,197.075644 C32.9728415,200.001552 31.699486,202.812496 31.2364476,205.73615 C30.7606306,208.743207 31.0635599,211.88852 30.4561979,214.857257 C29.6240819,218.926778 28.2853298,222.895612 27.0585788,226.874967 C26.9563495,227.208583 26.0573335,227.295744 25.6025637,227.469315 C25.3342119,223.356214 24.6614532,219.410672 24.9425837,215.533506 C25.2146939,211.778817 26.6045606,208.119555 27.2622856,204.376136 C28.7836973,195.717885 30.2021282,187.040849 31.5739545,178.35705 C32.2286727,174.21239 28.2094095,173.805889 26.0791324,172.928267 C13.5004247,167.744437 5.4716702,158.98625 3.23841213,145.440967 C2.86407267,143.170271 2.12441399,142.095033 0.00015033713,141.80124 L0.00015033713,135.790131 Z" id="Fill-1"></path>
                    <path d="M1086.18577,126.022304 C1085.39349,126.363435 1084.11487,126.506198 1083.88185,127.075751 C1080.81723,134.559582 1077.95857,142.127569 1074.92702,149.624925 C1072.52839,155.559392 1069.85916,161.384908 1067.5139,167.338912 C1066.22626,170.607453 1065.39189,174.05257 1064.29593,177.398503 C1063.08496,181.093833 1061.82213,184.772632 1060.5578,188.449928 C1059.39043,191.846204 1058.11181,195.206415 1057.02788,198.628238 C1055.98905,201.908801 1054.99833,205.217917 1054.26468,208.575121 C1053.91365,210.183093 1054.20455,211.931575 1054.20455,213.8123 C1053.29727,213.613934 1052.26746,213.388517 1051.06025,213.124028 C1048.96455,218.295837 1046.94477,223.402274 1044.82276,228.466633 C1043.81926,230.861309 1042.58123,233.156801 1041.5191,235.528184 C1039.3114,240.459548 1037.12099,245.399177 1034.97718,250.359093 C1032.89577,255.176997 1030.75271,259.973862 1028.87575,264.871414 C1027.01683,269.721627 1025.49617,274.700329 1023.75677,279.597129 C1021.35288,286.361129 1018.80692,293.074787 1016.46091,299.858324 C1013.28128,309.053067 1010.48576,318.389071 1007.05432,327.486884 C1003.81004,336.087279 999.918564,344.44197 996.384138,352.934915 C993.877266,358.960301 991.490664,365.03603 989.049941,371.089968 C988.53203,370.95547 988.014118,370.820971 987.496207,370.687224 C988.495949,366.641747 989.137888,362.464778 990.563084,358.574839 C994.964204,346.569902 999.607366,334.652127 1004.26631,322.743368 C1007.86163,313.55163 1011.95155,304.540226 1015.22739,295.239538 C1019.19554,283.971713 1022.15568,272.343222 1026.26139,261.131001 C1030.22052,250.31927 1035.07941,239.835895 1039.55194,229.212762 C1041.81301,223.843339 1044.15677,218.50848 1046.34868,213.112006 C1048.20911,208.533795 1046.823,205.601125 1042.8323,203.97512 C1042.28582,201.193479 1042.46322,198.420855 1041.24399,196.567179 C1037.24351,190.486942 1032.61689,184.821472 1028.47435,178.829899 C1026.54327,176.037739 1024.0612,173.775307 1023.72219,169.602095 C1023.55532,167.547047 1022.83069,164.153776 1021.01011,161.753089 C1019.01063,159.117217 1017.68315,155.98017 1015.9415,153.136164 C1014.73128,151.160012 1013.25873,149.346911 1012.00266,147.397057 C1006.81227,139.344425 1001.61813,131.293296 996.505159,123.191072 C991.002069,114.470455 985.77635,105.569505 980.087593,96.9736187 C972.739866,85.8688458 964.778763,75.2810282 954.933184,66.1035672 C952.118122,63.4789666 951.343134,58.6678251 949.632297,54.859036 C950.130665,54.528425 950.629032,54.197814 951.128152,53.867203 C953.546324,56.421173 955.93443,59.0051986 958.39169,61.5208478 C960.869998,64.0582873 963.540737,66.4176477 965.89652,69.061033 C968.062126,71.4902725 969.969904,74.1569508 971.900985,76.7853083 C973.844092,79.4309478 975.625587,82.1938039 977.572453,84.8364378 C979.027716,86.8110872 981.085832,87.8021688 981.554132,91.1135386 C982.011908,94.3482668 986.090555,96.9495743 988.119354,100.12344 C989.696391,102.591 990.565339,105.510897 991.746237,108.230924 C991.841702,108.450329 991.848467,108.788454 992.009327,108.886134 C996.650986,111.706847 997.607882,117.41139 1001.59407,120.93916 C1004.06787,123.127955 1004.94358,127.080259 1006.66645,130.168467 C1008.46899,133.400941 1010.39556,136.565038 1012.32288,139.725379 C1015.33488,144.662002 1018.35215,149.597123 1021.44609,154.483404 C1023.65229,157.968344 1026.26515,161.224111 1028.19322,164.849561 C1030.45805,169.107681 1032.1298,173.677627 1034.15634,178.066488 C1035.0516,180.003568 1035.82659,182.19612 1037.28711,183.630521 C1040.75464,187.035063 1043.51708,190.707099 1045.04977,195.401776 C1045.61654,197.138986 1047.1357,198.682338 1048.51579,200.005534 C1049.93873,201.370056 1051.53531,201.034185 1052.2419,199.112133 C1055.61546,189.93918 1058.95896,180.753454 1062.19647,171.531661 C1064.81159,164.082394 1067.08093,156.508396 1069.84036,149.114732 C1072.01649,143.283956 1074.80525,137.684607 1077.14073,131.909434 C1080.2482,124.22348 1083.17903,116.466895 1086.18577,108.740365 L1086.18577,126.022304 Z" id="Fill-4"></path>
                    <path d="M357.453438,115.206064 C355.662171,115.10613 353.627358,114.528312 351.851877,114.977642 C345.31597,116.630697 338.90785,118.792442 332.365178,120.413188 C329.505014,121.121747 328.836765,122.739487 329.014163,125.204042 C329.178031,127.491269 329.502759,129.766474 329.652344,132.054452 C329.916938,136.087907 329.445631,140.300191 330.4574,144.127014 C332.532804,151.977522 335.574124,159.571056 340.507437,166.14721 C342.74295,169.127968 344.738675,172.661749 349.094694,173.410132 C351.864655,154.118229 354.619583,134.940536 357.453438,115.206064 M404.752506,99.8860011 C401.48117,89.8639793 398.586429,80.5212127 395.375228,71.2881489 C391.850574,61.1496618 388.082373,51.0945788 384.302898,41.0477611 C383.594058,39.1632784 382.169614,37.9941176 379.77775,38.6080022 C378.37285,38.9679173 376.840914,38.8326674 375.043634,38.9386132 C374.01608,44.0360338 372.886296,49.0635753 372.006072,54.1346973 C370.393707,63.4211097 368.912886,72.7300638 367.409515,82.0345095 C366.168482,89.7137015 364.759823,97.3756116 363.832994,105.093876 C363.225632,110.154479 364.020164,110.535433 369.16019,109.175419 C376.597368,107.207532 384.039056,105.260684 391.482248,103.31609 C395.739795,102.203284 400.002604,101.112267 404.752506,99.8860011 M347.658222,50.5881429 C347.512395,51.5303842 347.631162,52.473377 347.230513,53.0647199 C345.084451,56.2273147 342.843676,59.3282957 340.565317,62.3984698 C339.30023,64.1026192 337.396962,65.5069646 336.655799,67.390696 C334.660074,72.461818 332.929694,77.6614275 331.48345,82.9173911 C330.188296,87.6240897 328.924713,92.4344799 328.534588,97.2711686 C328.093348,102.752549 329.042727,108.345135 328.608253,113.828018 C328.342156,117.187476 329.184796,117.0109 331.775856,116.44285 C339.569333,114.733441 347.431965,113.343372 355.235965,111.679046 C356.547657,111.39953 358.505046,110.60982 358.781667,109.654805 C359.788174,106.189401 360.280528,102.564702 360.833017,98.979075 C362.381489,88.9375171 363.720993,78.8613952 365.414541,68.8453844 C366.88108,60.1721052 368.779086,51.5717106 370.2569,42.9006855 C370.354619,42.3236191 368.358142,40.6397571 367.578644,40.7840237 C361.545615,41.8983331 356.354474,44.9369488 351.409885,48.4564533 C350.183886,49.3295669 348.783496,49.9569764 347.658222,50.5881429 M408.368866,99.2630999 C410.589345,98.7108293 413.041344,97.9511754 415.548215,97.5033477 C428.396778,95.2101095 441.266388,93.0348394 454.113448,90.7385957 C459.159514,89.8361779 460.162262,86.4714595 456.730817,82.4890996 C455.613061,81.1922028 454.179596,79.9606768 453.614329,78.4316009 C450.718084,70.5998769 445.596849,64.4429983 439.378906,59.1381944 C435.360394,55.7096079 430.826226,52.8610936 426.973086,49.2709586 C423.388297,45.931036 419.508095,43.690395 414.819832,42.2266899 C410.778018,40.9651084 407.310492,40.1536086 402.827439,41.2017958 C399.031427,42.0884344 394.522064,40.1761503 390.384035,39.2526936 C387.96511,38.7124452 387.646396,39.3097992 388.434162,41.4647818 C389.94505,45.5989222 391.311615,49.7856598 392.746583,53.9483529 C397.868569,68.8123233 402.994313,83.6747909 408.368866,99.2630999 M408.650748,103.594104 C410.029339,107.160195 411.210989,110.364867 412.50464,113.523705 C414.068898,117.346019 415.955629,121.051868 417.283858,124.951575 C418.69402,129.090224 419.30965,133.506135 420.805505,137.606463 C424.438402,147.567622 428.46894,157.383764 432.151448,167.328393 C433.42781,170.77351 434.123871,171.421958 437.342589,169.457828 C441.194227,167.106733 444.673779,164.143256 448.544209,161.82973 C455.313138,157.782751 459.704486,151.728061 461.991865,144.562819 C463.804931,138.884575 464.007134,132.692381 464.910661,126.725604 C464.939976,126.530994 464.801666,126.316097 464.768592,126.10646 C464.11688,121.963303 463.241918,117.83893 462.881861,113.670226 C462.474447,108.954511 462.724759,104.182441 462.307573,99.4682291 C462.079812,96.8879604 461.322113,94.107071 457.639605,94.4594723 C451.413393,95.0553235 445.151851,95.4310178 438.976002,96.3672481 C431.745538,97.4635241 424.561678,98.9302348 417.416154,100.502891 C414.4936,101.14608 411.723639,102.486557 408.650748,103.594104 M420.550683,150.676869 C420.346225,150.658835 420.141015,150.640051 419.936556,150.622017 C420.002705,149.203396 420.262788,147.762983 420.101927,146.37066 C419.393839,140.244589 413.004511,136.180327 413.878722,129.382514 C413.965165,128.707767 412.334759,127.950367 412.09873,127.071243 C411.353809,124.300121 410.97947,121.431319 410.300698,118.639159 C409.412205,114.985908 408.150877,111.410049 407.468346,107.722985 C406.969227,105.027002 405.883793,103.675254 403.086771,104.123082 C400.785861,104.492014 398.467662,104.812105 396.206592,105.356111 C390.535875,106.719881 384.895978,108.209885 379.238792,109.628506 C375.363852,110.600803 371.521987,111.827821 367.586912,112.404136 C364.102098,112.91508 361.434365,114.572644 361.112644,117.370815 C360.75409,120.487575 360.443644,123.611849 359.977599,126.71283 C357.624071,142.371018 355.154032,158.011925 352.97264,173.694157 C352.783967,175.051165 354.050557,177.494681 355.244234,177.995857 C359.027468,179.582039 363.028691,180.896218 367.069753,181.570213 C376.135833,183.082007 385.277083,183.318695 394.476212,182.456852 C400.180754,181.921863 406.134856,182.895663 411.635692,181.667142 C417.299643,180.401804 422.53814,177.257994 427.984855,174.989551 C430.300046,174.02552 430.321845,172.896934 429.160491,170.717155 C426.690452,166.081839 424.615048,161.230874 422.494543,156.417478 C421.683474,154.575824 421.189616,152.594413 420.550683,150.676869 M353.151541,182.6184 C346.874966,201.093545 347.017786,220.805475 342.735433,239.605219 C342.099507,239.515804 341.462829,239.425637 340.826903,239.336222 C341.198236,234.277873 341.435769,229.204497 341.97172,224.163431 C342.906066,215.362415 343.881002,206.560649 345.120532,197.799457 C345.806821,192.949994 346.849409,188.122322 348.151328,183.399845 C348.841376,180.899975 348.115999,179.553486 346.325484,178.013891 C342.587351,174.797947 338.837191,171.550446 335.460619,167.968576 C330.313828,162.508986 327.025955,155.820875 325.635336,148.557201 C324.265013,141.400976 323.968849,134.041124 323.177324,126.772941 C322.950315,124.689341 321.531884,124.017599 319.715812,124.389537 C316.262568,125.096593 312.5981,125.465525 309.483866,126.947264 C306.207269,128.505644 303.601175,128.486108 300.814676,125.901331 C302.215066,125.282938 303.74625,124.37526 305.402213,123.921421 C309.659009,122.756018 313.972933,121.800251 318.260548,120.74455 C321.893445,119.849646 322.403088,118.39045 322.072346,114.569638 C321.666436,109.888487 322.052802,105.144219 321.943808,100.430758 C321.896452,98.3651905 320.921515,96.1914231 321.334191,94.2738793 C322.138494,90.5364721 323.453944,86.8779607 324.862603,83.3073619 C327.407059,76.8551875 329.852293,70.329377 332.955251,64.1431942 C335.259168,59.5484526 338.659793,55.5172524 341.349325,51.0998385 C345.085954,44.9639988 351.349751,42.259751 357.32941,39.34812 C360.904427,37.6071525 364.976308,36.8505041 368.866281,35.8030683 C371.313018,35.1441005 372.122584,33.6773898 372.276679,31.2316197 C372.705892,24.4368121 373.375644,17.6577837 373.949931,10.8719927 C374.286687,10.7247206 374.623442,10.5774484 374.960197,10.4294248 C375.69309,11.7127966 376.609395,12.9262893 377.123548,14.2915625 C378.847163,18.866768 380.617383,23.4397194 382.017774,28.1186165 C384.148051,35.2335157 389.800727,34.7075436 395.493994,35.2560574 C401.914141,35.8744502 408.235817,37.5305108 414.597333,38.7545229 C426.528088,41.0500153 434.812415,49.2378975 443.603379,56.6428327 C450.241515,62.234667 455.032008,69.1264038 458.691965,76.9288236 C460.206612,80.158292 462.36395,83.0984758 463.750058,86.3730276 C464.841505,88.951042 466.724478,88.7166088 468.59392,88.4062853 C476.09875,87.1619857 483.588546,85.8154972 491.058798,84.3773393 C493.180806,83.9685839 495.190814,82.8490148 497.311319,82.6273551 C498.051729,82.5492107 498.972544,84.1902435 499.810674,85.0468266 C498.915416,85.6764903 498.096079,86.6608094 497.111371,86.8719496 C493.625052,87.6180786 490.070331,88.0411104 486.562214,88.6948185 C480.59383,89.8068737 474.623191,90.9226859 468.708176,92.2729313 C468.064734,92.4202035 467.209315,94.2641112 467.413022,95.0808707 C469.016368,101.49773 470.341589,107.770322 468.83446,114.544842 C468.181996,117.47601 469.986794,120.869281 470.030392,124.061931 C470.082258,127.884245 469.471889,131.719333 469.094543,135.54315 C468.889333,137.617734 468.329327,139.684053 468.348119,141.74962 C468.433811,151.123194 462.24368,156.84577 456.012206,162.205425 C451.758417,165.863936 446.594336,168.465995 441.836166,171.539926 C441.323516,171.871288 440.844693,172.300331 440.283935,172.504709 C436.083516,174.036791 435.122861,175.746951 436.754771,179.923169 C439.445054,186.807392 442.361594,193.602951 445.175905,200.439085 C448.208957,207.8057 450.944341,215.311321 454.34196,222.505116 C457.84707,229.925079 462.212109,236.937038 465.75781,244.339719 C467.306283,247.573695 469.359136,251.023321 467.721213,255.973469 C464.310064,250.062295 460.878619,244.943835 458.272525,239.434654 C452.452223,227.131416 446.936353,214.679403 441.510686,202.19508 C438.686603,195.697823 436.197772,189.04653 433.787116,182.380962 C432.263449,178.167925 431.869566,177.777955 427.769121,179.547475 C424.728552,180.860151 421.845086,182.580831 418.736866,183.682367 C410.182683,186.713469 401.268443,186.365576 392.383519,186.046235 C390.719287,185.986124 388.969362,185.47518 387.409615,185.831338 C379.013286,187.751136 370.900343,185.447379 362.709976,184.396186 C359.574695,183.994193 356.483012,183.248815 353.151541,182.6184" id="Fill-7"></path>
                    <path d="M872.035111,59.8105369 C869.872511,54.6672816 867.996304,50.2047844 866.120096,45.7430385 C865.651044,45.7280108 865.181993,45.712983 864.712941,45.6979552 C864.019887,50.2836802 863.326832,54.8686538 862.579657,59.8105369 L872.035111,59.8105369 Z M910.873205,206.121687 C925.126668,197.272583 941.531456,163.149019 940.733918,144.951888 C926.392507,142.987007 912.015767,141.017617 896.604708,138.906967 C902.499427,161.818309 904.504924,184.193912 910.873205,206.121687 L910.873205,206.121687 Z M892.647835,135.068122 C892.134433,132.560738 891.809705,130.528232 891.2948,128.544566 C890.062788,123.805557 888.675176,119.106373 887.467969,114.361353 C884.451454,102.510451 881.553706,90.6287426 878.491339,78.789863 C877.53745,75.1005447 876.403156,71.4292597 874.965933,67.9067497 C874.296933,66.2672197 872.978476,64.2858078 871.478112,63.7192607 C868.405221,62.5583653 864.931681,61.8836182 862.061745,64.5052133 C861.547592,64.9748312 861.543834,66.0974058 861.465659,66.9344528 C861.1274,70.5644114 861.062755,74.2326908 860.508011,77.8273341 C859.034707,87.3684673 857.070553,96.8427268 855.861842,106.413916 C854.97786,113.410847 854.989887,120.519735 854.583225,127.57828 C854.450928,129.879783 854.967336,131.12784 857.781647,131.388572 C865.518748,132.104645 873.206989,133.326403 880.929807,134.214544 C884.638624,134.641333 888.382019,134.767566 892.647835,135.068122 L892.647835,135.068122 Z M797.609211,119.609052 C799.173469,120.570078 800.235601,121.283897 801.355612,121.891019 C802.187728,122.342604 803.063442,122.842277 803.974485,122.998566 C813.001478,124.547178 822.028471,126.099547 831.078766,127.502389 C836.96221,128.414575 842.874217,129.170472 848.7975,129.756555 C849.638637,129.83996 851.338198,128.641495 851.41487,127.908139 C852.175576,120.639957 852.567204,113.334205 853.286567,106.060763 C853.931513,99.5454718 854.789187,93.0489655 855.677679,86.5614758 C856.527836,80.3535028 857.589968,74.1748339 858.413063,67.9646066 C858.513789,67.2049527 857.649351,65.5909699 857.335146,65.6172685 C854.526848,65.8494476 851.640376,66.0282781 848.970388,66.8525514 C841.270872,69.2299451 835.278434,74.1139714 829.547583,79.7260933 C820.626577,88.4639919 813.441214,98.4762457 806.346805,108.619241 C804.665284,111.022934 802.816889,113.309409 801.042911,115.65299 C801.127851,116.006894 801.39019,117.097911 801.870517,119.097356 C800.442314,118.008594 799.891329,117.588568 799.22759,117.082883 C798.57663,118.09876 797.942208,119.089091 797.609211,119.609052 L797.609211,119.609052 Z M877.281125,64.1813648 C879.9233,72.4045622 882.517367,79.6554627 884.549173,87.0611493 C886.21115,93.1180933 887.088368,99.385426 888.515067,105.513001 C890.596485,114.455277 892.871837,123.35247 895.035188,132.27521 C895.681638,134.944143 897.389468,136.157635 900.05269,136.395826 C903.512699,136.706149 906.967446,137.097623 910.413173,137.543947 C919.222929,138.685307 928.016148,139.970181 936.837931,141.002589 C940.467821,141.427875 941.932856,139.96417 941.811083,136.422124 C941.747941,134.587985 941.139076,132.779392 940.974457,130.940744 C940.258852,122.951228 937.800088,115.535774 933.473386,108.809343 C929.077528,101.97396 924.244189,95.4128342 920.000172,88.4880364 C915.145035,80.564643 908.270869,75.1275947 900.015106,70.4975378 C899.779828,72.4180872 899.59341,73.9449089 899.329568,76.0983888 C897.203801,75.2666016 895.214841,74.8991725 893.738531,73.8254381 C890.705479,71.6193611 888.129452,68.7565703 885.007702,66.7090362 C883.076621,65.4429463 880.487064,65.1792089 877.281125,64.1813648 L877.281125,64.1813648 Z M795.949489,144.086289 C796.286996,144.140388 796.623751,144.194488 796.961258,144.247837 C796.961258,149.542122 796.834975,154.840914 796.999594,160.129939 C797.140159,164.629254 796.669604,169.459181 798.139149,173.542227 C801.26541,182.227528 805.449292,190.438703 811.846137,197.476209 C818.916492,205.253833 827.469172,210.033417 837.447047,212.738416 C839.729916,213.35756 840.419964,212.274809 840.713121,210.494018 C841.172401,207.704112 841.416699,204.878139 841.903791,202.093493 C843.384612,193.632856 845.418673,185.237591 846.354522,176.719849 C847.916525,162.50583 848.793742,148.216672 850.007714,133.357961 C832.675347,131.048193 814.856638,126.343748 796.474166,125.689289 C796.035933,127.535451 795.708198,128.912746 795.367684,130.349401 C797.195032,129.876778 799.692132,127.793177 798.50071,132.270702 C797.627251,135.557276 797.503975,139.042968 797.04244,142.466295 L794.048476,142.466295 C794.165739,143.651234 794.28225,144.835423 794.49197,146.95509 C795.307549,145.348621 795.628519,144.717455 795.949489,144.086289 L795.949489,144.086289 Z M844.309937,210.599212 C845.064629,211.790915 845.739643,214.214143 846.941589,214.510942 C851.703517,215.689119 856.615031,216.694477 861.499485,216.844003 C868.484899,217.058149 875.496623,216.25266 882.495568,216.276705 C890.267998,216.303004 897.204553,213.368831 904.231311,210.741976 C906.595362,209.858343 908.137821,208.205288 906.683309,205.164418 C905.893288,203.512866 905.830898,201.505907 905.485874,199.649977 C904.096007,192.165394 902.761013,184.670293 901.336569,177.191721 C899.336334,166.691816 897.305279,156.197922 895.219351,145.715299 C894.578163,142.491842 894.400014,138.798767 889.977096,138.204418 C885.432404,137.594291 880.883203,136.995434 876.321974,136.530324 C870.485887,135.935976 864.528778,135.993081 858.822732,134.808893 C853.870627,133.781744 853.022725,133.559333 852.455203,140.005497 C851.888432,146.438135 851.372024,152.875282 850.792474,159.306417 C850.659426,160.779139 850.261784,162.228568 850.146776,163.701289 C849.595791,170.774111 849.395842,177.88901 848.50735,184.917499 C847.453486,193.251902 845.822329,201.514172 844.309937,210.599212 L844.309937,210.599212 Z M963.110096,141.497755 C967.254139,145.958749 973.520942,142.544439 978.445987,145.866328 C976.086445,146.097005 973.730663,146.452411 971.366611,146.524545 C968.720678,146.605695 966.066476,146.415593 963.416032,146.369007 C960.871576,146.324675 958.32712,146.302885 955.781913,146.28936 C953.24347,146.276586 950.704276,146.287106 948.80176,146.287106 C947.875683,151.211707 947.523894,155.958229 946.03706,160.318538 C943.769976,166.968327 940.800066,173.38744 937.964708,179.832852 C936.601901,182.929325 935.137618,186.047588 933.23886,188.828477 C929.527788,194.261017 925.680661,199.631192 921.471221,204.67827 C919.748357,206.744588 917.099417,208.260139 914.587284,209.396239 C910.779996,211.116919 911.582796,214.111954 912.172118,216.852269 C913.881451,224.805718 915.919271,232.687033 917.721061,240.621697 C918.838066,245.539536 919.776922,250.498701 920.763885,255.445844 C921.795949,260.622912 922.688952,265.829284 923.834521,270.980805 C924.713241,274.934612 925.866327,278.828308 926.935976,282.738534 C929.053474,290.483097 931.237873,298.208875 933.317035,305.962455 C935.095523,312.597217 936.544773,319.328156 938.548767,325.891536 C940.297188,331.61862 942.715361,337.13757 944.644938,342.81356 C945.84538,346.343584 946.651187,350.005852 947.708809,353.586219 C948.144786,355.059692 948.992688,356.433982 949.279832,357.925489 C949.931543,361.314251 950.351735,364.747346 950.997433,369.037024 C946.620368,363.358029 942.634179,358.49955 941.223265,351.737052 C940.664762,351.093863 939.739437,350.029145 938.616419,348.735254 C939.949909,348.082297 940.890268,347.622447 942.368834,346.899612 C939.974715,339.457107 937.45732,332.028879 935.20527,324.521003 C932.768305,316.399995 930.526026,308.219626 928.295775,300.038507 C925.639318,290.291493 922.968579,280.545982 920.531614,270.742614 C919.092888,264.952413 918.142757,259.042742 916.887442,253.204452 C915.063101,244.722025 913.144047,236.259886 911.300914,227.781217 C910.495107,224.074616 909.681032,220.364259 909.052622,216.625349 C908.62792,214.096175 907.180173,214.224663 905.303966,214.712314 C898.522258,216.472817 891.814967,218.814144 884.917499,219.775922 C872.955174,221.443253 860.924445,221.402678 849.153048,217.88092 C844.615121,216.523912 843.910792,217.269289 843.320719,221.9016 C842.504388,228.31846 841.028829,234.651163 840.234297,241.069525 C839.291684,248.675832 838.001791,256.369301 838.342305,263.958326 C838.568562,269.006907 838.629449,273.836833 837.496658,278.711091 C837.394429,279.150653 837.131339,279.575939 836.852464,279.937357 C836.760006,280.056828 836.381909,279.956142 835.91887,279.956142 C833.026384,270.769664 834.341834,261.459959 835.567081,252.210365 C836.944921,241.814903 838.690335,231.469032 840.207988,221.091603 C840.416957,219.663965 840.237304,218.179221 840.237304,217.25351 C832.652796,214.031556 825.286277,211.220611 818.212915,207.801041 C811.973924,204.785718 807.249579,199.973825 803.032623,194.328642 C798.283473,187.971894 795.652573,180.844222 793.02468,173.597829 C792.825483,173.047061 792.371465,172.346016 792.548863,171.938012 C794.351405,167.791098 791.738546,164.043923 791.171775,160.236636 C790.026958,152.541665 792.197074,145.404976 793.032949,138.03761 C793.242669,136.192951 793.165245,134.317485 793.282508,132.460052 C793.356925,131.284129 793.318589,130.027807 793.726754,128.959332 C795.395497,124.597521 795.478934,124.465277 791.014673,123.680075 C783.965365,122.440284 776.875466,121.431169 769.84946,119.643616 C776.512401,120.062139 783.185115,120.369457 789.833774,120.947275 C792.975069,121.220029 794.684402,120.829307 796.501226,117.444301 C800.179976,110.590134 802.970985,103.0507 809.468555,97.8510904 C811.800284,95.9853924 812.733126,92.4681421 814.634139,89.9532442 C821.852577,80.4030944 829.530294,71.1602626 840.424474,65.664606 C844.482825,63.6178233 849.364271,63.0708123 853.942037,62.2239973 C857.376489,61.5890739 859.639063,60.9684269 860.083309,56.5224602 C860.881599,48.5224252 862.733001,40.6260818 864.144666,32.6869093 C864.511489,32.6793954 864.87756,32.6718815 865.243631,32.6643676 C865.514238,34.4218657 865.560842,36.2545026 866.120848,37.9135688 C866.641014,39.4561697 867.848973,40.7538179 868.509705,42.2656118 C870.626452,47.1060576 873.132572,51.8623478 874.489364,56.9191934 C875.304943,59.9615661 877.275111,60.7009325 879.33924,61.1419976 C883.644896,62.0624487 888.265507,61.8054738 892.40504,63.1309234 C896.821193,64.5450369 900.978767,66.983293 904.980741,69.4162895 C909.779502,72.3324289 914.319684,75.6806167 918.912483,78.9258643 C919.894184,79.6193961 920.796959,80.5638916 921.436643,81.5805205 C924.630556,86.6614105 927.689165,91.8272075 930.873305,96.9141087 C931.950471,98.6347888 933.285464,100.191666 934.448322,101.861252 C935.608925,103.527832 936.794333,105.188401 937.803847,106.945899 C939.603382,110.078438 941.357817,113.243287 942.978451,116.471253 C943.946622,118.400819 944.936592,120.412286 945.368811,122.500395 C946.430943,127.630877 947.264562,132.813956 948.020758,138.000792 C948.669463,142.449764 949.272315,143.155318 955.311357,143.089196 C957.902418,143.060643 960.482203,142.064302 963.110096,141.497755 L963.110096,141.497755 Z" id="Fill-9"></path>
                    <path d="M202.377531,45.8599546 C203.231446,48.9008245 204.595004,51.9026222 204.831033,54.9900782 C205.288809,60.9839055 208.782644,65.8904734 210.043973,71.5386619 C210.334875,72.8423212 210.086819,74.2669541 209.817715,75.6367356 C212.458387,88.8739496 214.118861,102.409465 218.017854,115.400223 C222.155132,129.182945 223.489374,143.442048 226.151093,157.474982 C228.79853,171.429021 232.041302,185.271103 235.051803,199.156014 C238.062304,213.042428 241.108134,226.921327 244.97255,240.845311 C245.657336,236.875724 246.735253,232.927928 246.956249,228.932795 C247.734995,214.848015 247.934943,200.727919 248.903866,186.659669 C249.732224,174.635196 251.446819,162.674592 252.519474,150.662893 C253.268905,142.267627 253.647003,133.837798 254.101021,125.418488 C254.817377,112.145959 255.230804,98.8531423 256.201982,85.6001492 C256.987494,74.8966178 258.354058,64.2344128 259.565024,53.5654453 C260.341515,46.7195432 261.381848,39.9036968 262.101211,33.0532864 C262.213212,31.98932 261.239028,30.8111426 261.014274,30.2754025 C262.147816,26.5920953 263.213706,23.1304478 264.279596,19.6688003 C264.665211,19.6282253 265.050074,19.5876503 265.435689,19.5470753 C265.95811,21.8891537 266.480532,24.2312322 266.742118,25.406404 C265.914512,32.5784088 265.265056,38.7758624 264.466766,44.9537799 C263.700046,50.8897503 262.791258,56.8069359 261.924565,62.7293813 C260.834621,70.1809026 259.141073,77.5986114 258.755458,85.085448 C258.139076,97.0633345 258.4841,109.088559 258.209734,121.088987 C258.121787,124.955633 257.243818,128.798234 256.938634,132.669389 C256.278654,141.030842 255.899053,149.41709 255.121058,157.766521 C254.655765,162.758747 253.539511,167.687106 252.926136,172.670315 C252.4195,176.793185 252.181215,180.952121 251.897078,185.099786 C251.567088,189.908674 251.310012,194.722821 251.033392,199.535465 C250.750006,204.451801 250.49293,209.36964 250.202779,214.285976 C249.771311,221.597739 249.312031,228.907999 248.881315,236.219762 C248.561849,241.644788 248.058971,247.070566 248.048448,252.497094 C248.042434,255.471091 248.969263,258.436822 249.3203,261.425094 C249.557081,263.435811 249.52551,265.478085 249.608947,267.506834 C249.649538,268.491153 249.705163,269.476224 249.708921,270.460543 C249.722452,273.624641 249.714183,276.787987 248.827194,280.307491 C248.080019,279.300631 246.930691,278.393704 246.652568,277.270378 C245.119129,271.077433 243.71047,264.849924 242.428846,258.599122 C241.153235,252.373867 240.073063,246.108037 238.91697,239.857986 C238.451677,237.341585 238.103647,234.800389 237.544392,232.305779 C235.323161,222.390454 232.95911,212.506687 230.806282,202.577086 C229.176628,195.058692 227.734895,187.498219 226.302934,179.938498 C223.511925,165.203015 220.784809,150.45551 218.03364,135.712513 C215.803388,123.757168 213.047709,111.933316 209.839514,100.194371 C208.61577,95.7175974 208.687932,90.8929309 208.093349,86.2365754 C207.588216,82.2730002 207.01017,78.3184417 206.358458,74.3766569 C206.281786,73.9160556 205.529349,73.5674113 204.498788,72.6274241 C204.101898,76.1965202 203.588496,79.1532345 203.477247,82.1249767 C203.120196,91.6285404 202.945805,101.138867 202.638366,110.644684 C202.294094,121.297121 201.719806,131.944299 201.55669,142.598238 C201.443937,149.96861 202.076857,157.350252 201.963352,164.720623 C201.884425,169.881912 200.904979,175.023664 200.696762,180.18871 C200.458477,186.114161 200.695258,192.058397 200.582506,197.991361 C200.542666,200.088487 199.98266,202.170585 199.832323,204.272219 C199.31366,211.553927 198.96563,218.849911 198.350751,226.123353 C198.119232,228.867424 197.425426,231.585948 196.7895,234.280428 C195.79051,238.516006 194.662229,242.721528 193.220496,246.930807 C192.661242,241.39683 190.473085,236.06197 193.121274,230.268013 C194.540456,227.162523 194.779492,223.425116 195.102717,219.931159 C195.861168,211.726746 196.507618,203.505051 196.902253,195.275843 C197.279599,187.419323 197.218712,179.542516 197.475037,171.678482 C197.61034,167.512032 198.182373,163.357604 198.257542,159.191905 C198.525894,144.276841 198.589035,129.357268 198.897978,114.442954 C198.997952,109.612276 199.698523,104.797378 199.970633,99.9659489 C200.313402,93.8864633 200.787716,87.7927013 200.686238,81.7139671 C200.520116,71.7663327 199.827813,61.8277149 199.620348,51.8793291 C199.58126,49.9986033 200.768172,48.0915789 201.389064,46.1973281 C201.719054,46.0846198 202.048293,45.9726629 202.377531,45.8599546" id="Fill-11"></path>
                    <path d="M813.996409,340.462164 C812.620824,338.431161 811.217427,336.418191 809.873413,334.3669 C804.603345,326.32103 802.785018,316.942948 799.721147,308.044252 C798.08172,303.281951 796.359609,298.548954 794.721686,293.786652 C791.899106,285.577731 789.364422,277.259859 786.243423,269.166652 C782.981107,260.707518 779.061067,252.503106 775.627367,244.106337 C771.687782,234.469778 768.045865,224.711493 764.127328,215.065917 C760.365141,205.805052 756.449611,196.605801 752.534832,187.407301 C749.347685,179.917459 745.78695,172.574137 742.88394,164.977598 C738.120508,152.515066 730.972729,141.301342 724.769067,128.20614 C721.8405,132.521365 719.435857,136.022085 717.074061,139.551357 C713.335177,145.139435 709.297873,150.561455 706.00098,156.400497 C703.172387,161.410756 699.918339,166.195599 702.899525,173.026473 C704.871948,177.545325 704.005254,183.296454 704.456266,188.491555 C704.508884,189.099428 704.871948,189.677997 705.072648,190.276103 C705.558989,191.726283 706.254298,193.14791 706.475293,194.638665 C707.296134,200.162123 708.019256,205.702863 708.657437,211.250366 C709.005467,214.272451 709.108448,217.323089 709.321175,220.348179 C708.424414,220.741156 707.351759,221.212276 705.750668,221.914825 C704.593824,213.503029 703.75344,205.090481 702.209477,196.808676 C700.61891,188.272901 698.206751,179.891912 696.432773,171.385441 C695.690859,167.830621 695.953949,164.069169 695.251123,160.501576 C694.198763,155.156948 692.61872,149.919018 691.413768,144.601441 C690.476416,140.463543 689.800651,136.267789 688.951997,132.109604 C688.143935,128.149786 687.247926,124.208752 686.41581,120.253443 C684.910184,113.094963 683.353443,105.946251 681.948542,98.767484 C680.33768,90.5292588 678.64338,82.2977961 677.412871,73.9994598 C676.524379,68.0071352 676.025259,61.9163788 675.91852,55.8594348 C675.80727,49.531991 673.515381,43.8582552 671.670744,38.0177112 C670.855165,35.4351884 672.338993,30.6488427 675.099934,28.3105212 C676.370283,32.7061448 678.125469,36.7726602 678.619326,40.9864478 C679.243977,46.3190531 678.611058,51.7876597 678.980136,57.1660997 C679.170312,59.9387239 680.425627,62.6279438 681.076587,65.3840374 C681.986878,69.2416668 682.921975,73.1023017 683.593982,77.0057658 C684.562153,82.6254015 685.491237,88.263822 686.095592,93.9307952 C686.984836,102.275718 690.264441,109.984965 692.102312,118.055631 C693.810894,125.563506 694.524243,133.29229 695.917868,140.879813 C696.809368,145.734535 698.141355,150.508107 699.594363,156.66724 C706.318943,149.36299 709.733851,141.012808 714.983623,133.994087 C720.383733,126.774745 725.141151,119.076017 730.290198,111.422372 C731.070448,111.958112 731.970967,112.577256 732.283669,112.792905 C733.065422,110.332107 733.548756,107.932171 734.580068,105.796725 C735.779007,103.313385 736.83738,100.2372 740.615352,101.41688 C740.380075,100.277775 740.205684,99.4332143 740.031293,98.5886535 C741.021263,98.8260923 742.011984,99.0627797 743.002706,99.3002185 C743.14703,99.1702283 743.292105,99.0409895 743.436429,98.9109992 C742.606568,98.2670591 741.777458,97.6231191 740.639406,96.7402374 C742.05483,95.9452682 743.357502,95.2134157 744.600038,94.516127 C744.287337,93.7076328 743.516107,92.5895665 743.776191,92.2409221 C745.092392,90.477413 745.627592,87.2073695 749.61303,89.3052467 C746.577723,86.9827043 747.06707,85.918738 749.405564,83.7893025 C752.348414,81.1090992 754.285508,77.3333712 756.698419,74.0610736 C758.01011,72.2825367 759.354124,70.5197789 760.823669,68.8757405 C761.04692,68.6270309 762.035387,69.0613335 763.052417,69.2514348 C762.154153,61.4535234 767.781272,57.0000428 771.366061,51.4848501 C774.553208,46.5812877 777.45697,41.4898782 780.381778,36.4225131 C782.338416,33.0337503 784.056018,29.5089861 785.985595,26.1044441 C788.273726,22.0664815 790.673858,18.0923869 793.025883,14.0904909 C793.437055,14.218227 793.848227,14.3467144 794.260151,14.4744505 C793.633245,18.0923869 793.547553,21.9237176 792.227593,25.2688999 C790.921163,28.5780156 788.288008,31.3461314 786.38023,34.4403498 C783.075068,39.8015079 780.029238,45.3279715 776.588021,50.5982115 C774.157821,54.3198395 771.036822,57.5913857 768.608126,61.3145165 C764.434767,67.714845 760.664312,74.378911 756.50749,80.7905104 C754.927447,83.2287666 752.746807,85.2778035 750.746572,87.612368 C751.82524,89.2008036 749.30108,92.3468679 746.72806,92.7586289 C746.483762,94.3215173 746.664167,95.7093322 746.07259,96.5591527 C740.534922,104.507342 734.887508,112.378889 729.223556,120.238415 C726.888821,123.477651 726.8798,126.882945 728.56508,130.263442 C732.922601,139.002844 737.701819,147.543879 741.781217,156.408762 C745.911729,165.384851 749.361967,174.672015 753.204584,183.782602 C754.430583,186.688973 756.063996,189.421022 757.329835,192.312366 C760.426028,199.388193 763.510194,206.471534 766.413204,213.627008 C768.065409,217.698783 769.269609,221.949389 770.824847,226.06249 C772.566503,230.671508 774.351004,235.272261 776.353495,239.770825 C777.841081,243.113002 779.963841,246.181673 781.343936,249.559916 C783.709491,255.350869 785.584195,261.340939 787.902393,267.15293 C791.154185,275.305497 794.853231,283.286747 797.914095,291.507691 C799.741442,296.41501 800.42698,301.740101 802.151347,306.694758 C803.831364,311.519425 806.311927,316.059315 808.198658,320.820114 C809.963616,325.275097 811.418879,329.854059 812.994412,334.38343 C813.630338,336.211559 814.224922,338.054715 814.838297,339.890358 C814.557918,340.08121 814.27754,340.271312 813.996409,340.462164" id="Fill-13"></path>
                    <path d="M599.602507,283.340697 C598.714014,277.790941 597.907455,272.227659 596.91974,266.695936 C595.358489,257.95428 593.6018,249.24794 592.063851,240.502527 C590.346249,230.738232 588.91504,220.922842 587.114001,211.175077 C584.984476,199.651029 582.52947,188.187092 580.341313,176.673564 C579.197248,170.654189 578.418501,164.565687 577.292476,158.543307 C576.533274,154.482802 575.454605,150.482409 574.52026,146.454966 C573.22285,140.86238 571.896125,135.276557 570.641562,129.674203 C569.626786,125.141076 568.567661,120.610202 567.793425,116.033494 C567.419085,113.816897 567.801693,111.483835 567.585208,109.228167 C567.121418,104.389975 566.692205,99.5345015 565.88264,94.7489072 C564.680694,87.6407705 563.067577,80.602513 561.817524,73.5011388 C561.190618,69.940308 561.041033,66.2975758 560.565216,62.705938 C559.996189,58.4042379 559.297874,54.1190684 558.676229,49.8233795 C557.787737,43.6867884 556.933822,37.5449375 556.034806,31.4098491 C555.52366,27.9211516 554.693047,24.4557471 554.508133,20.9527732 C554.405152,18.9969085 555.207952,16.9448661 555.880711,15.0333334 C556.043075,14.5697266 557.318685,14.2684197 558.053834,14.3180114 C558.524389,14.3495697 559.266303,15.1167375 559.335458,15.6291846 C560.603552,25.0365705 561.880665,34.4439565 562.946556,43.8753869 C563.413352,48.0080245 563.030744,52.2578787 563.714778,56.3401733 C564.755863,62.5549089 566.47121,68.6531792 567.73329,74.8348537 C568.311336,77.6683403 568.549621,80.5769658 568.841275,83.4615468 C569.193815,86.9412277 569.357683,90.441196 569.750063,93.9163686 C570.372458,99.4338155 570.940733,104.967042 571.859292,110.438654 C572.76357,115.828365 574.019637,121.161721 575.225341,126.496581 C576.065725,130.212198 577.269926,133.852676 577.978014,137.590083 C579.27843,144.45477 580.191728,151.394595 581.53499,158.250265 C582.632451,163.850365 584.29969,169.339259 585.376856,174.942364 C586.183414,179.134361 586.200703,183.478891 587.021544,187.66638 C588.312188,194.253053 590.139536,200.735283 591.431683,207.321955 C592.138268,210.923361 592.169087,214.654757 592.594541,218.317026 C592.734355,219.518496 593.275568,220.671878 593.429664,221.873348 C593.796487,224.735388 593.764164,227.67482 594.393325,230.470737 C595.737339,236.442023 597.617305,242.297595 598.836539,248.290671 C599.422102,251.170743 598.590738,254.334089 599.143227,257.226936 C599.933248,261.366336 601.798932,265.313381 602.448388,269.461046 C602.913682,272.433539 604.676385,275.586366 602.282266,278.761735 C601.44564,279.870784 601.674152,281.783068 601.416324,283.328675 C600.811969,283.332432 600.206862,283.33694 599.602507,283.340697" id="Fill-15"></path>
                    <path d="M519.400278,89.6924372 C520.020419,90.1928621 521.147196,90.7594091 521.083302,91.1035451 C520.163239,96.0296491 523.068504,100.619131 521.550851,105.893879 C520.242918,110.436024 521.558368,115.70401 521.5283,120.650401 C521.489964,126.851612 521.550851,133.075364 521.03294,139.244265 C520.525552,145.28543 521.718477,146.790461 527.800365,146.382457 C538.382596,145.672395 548.96633,144.975858 559.558333,144.458151 C560.972253,144.389023 562.43804,145.395884 563.880525,145.904574 C563.803853,146.522215 563.727181,147.140608 563.650509,147.75825 C561.231585,148.009214 558.817171,148.361615 556.391481,148.493108 C549.073069,148.887587 541.740376,149.066417 534.430985,149.583373 C529.450315,149.935023 524.499714,150.713461 520.339134,151.206372 C520.339134,155.164688 520.342892,158.436234 520.338382,161.70778 C520.327107,169.777694 520.318086,177.846857 520.296288,185.916771 C520.277495,193.144379 520.206085,200.371986 520.228636,207.598842 C520.24367,212.205606 520.414302,216.810867 520.465417,221.41688 C520.519538,226.2979 520.397013,231.183429 520.574411,236.05919 C520.721742,240.103915 521.585429,244.152398 521.426823,248.170824 C521.185532,254.281868 520.335375,260.368116 519.743799,266.465635 C519.136437,266.479911 518.529075,266.494939 517.922464,266.509967 C517.607508,264.696115 517.203853,262.892031 516.994133,261.066156 C516.466449,256.47968 515.945531,251.889446 515.601259,247.287191 C515.502788,245.976018 516.227413,244.616756 516.213883,243.283792 C516.124432,234.86298 515.804966,226.442918 515.812483,218.023608 C515.82,209.256406 516.153748,200.489954 516.265749,191.722751 C516.378502,182.854111 516.226661,173.978708 516.498772,165.115328 C516.776895,156.067105 517.577441,147.035414 517.87586,137.987943 C518.159245,129.382289 518.538847,120.740568 518.073553,112.158207 C517.263988,97.2401363 515.674924,82.3806742 516.590477,67.3829567 C517.056522,59.7608702 516.467201,52.1740989 514.121942,44.6767429 C513.041018,41.2203551 514.003175,37.1087564 514.179821,33.3014701 C514.199365,32.8859521 515.254732,32.1090163 515.654629,32.2081996 C516.433375,32.3998037 517.35419,32.9355438 517.751832,33.6050311 C520.533069,38.2936963 520.023426,43.6616168 520.186542,48.7207166 C520.53833,59.6767146 520.170756,70.6545029 520.163239,81.6232745 C520.161736,83.6685544 520.577418,85.7145857 520.566894,87.7583628 C520.563888,88.4105682 519.803934,89.0590166 519.400278,89.6924372" id="Fill-17"></path>
                    <path d="M267.300095,166.106184 C265.265281,160.706705 267.301598,156.046593 268.381018,151.365441 C268.563678,150.573478 269.922726,149.731922 270.880373,149.500495 C273.677396,148.824245 276.529291,148.244173 279.39171,148.003728 C282.651771,147.730974 285.972718,148.108923 289.22,147.762533 C293.626381,147.292915 297.969621,146.234208 302.37525,145.751817 C305.472947,145.412189 308.654832,145.841232 311.752529,145.500853 C314.427778,145.20706 317.036879,144.312907 320.619413,143.45933 C319.151371,148.713039 317.946419,153.030518 316.733198,157.345744 C316.701627,157.458452 316.535505,157.543359 316.524229,157.650807 C315.843954,164.039865 311.282725,163.70174 306.548609,163.763354 C301.629578,163.827222 296.727084,164.710855 291.803543,164.96783 C286.79431,165.229313 281.764782,165.077533 276.750287,165.271391 C273.59922,165.393116 270.458678,165.816899 267.300095,166.106184" id="Fill-19"></path>
                    <path d="M642.674771,150.952553 C632.036916,151.344778 621.988382,151.670881 611.945861,152.115703 C609.493863,152.224654 607.065167,152.853566 604.613168,152.964772 C603.837428,153.000087 602.364124,152.178819 602.325037,151.66487 C601.94318,146.686168 600.703651,141.57372 603.614178,136.903839 C604.009564,136.269667 604.887533,135.532555 605.545258,135.528798 C611.021288,135.498743 616.49807,135.667805 621.975603,135.682082 C623.052017,135.684336 624.126176,135.114032 625.207851,135.089987 C629.497721,134.994561 633.789847,135.038141 638.080468,134.965257 C639.003538,134.949478 639.934125,134.709785 640.842161,134.495639 C643.890247,133.775057 644.874955,134.920173 644.236022,138.018149 C643.751936,140.36699 643.730138,142.808252 643.451262,145.202927 C643.209971,147.2715 642.895767,149.332559 642.674771,150.952553" id="Fill-21"></path>
                    <path d="M725.427544,312.270738 C723.654317,303.881484 721.860795,295.495987 720.11463,287.100721 C718.765354,280.616988 717.477716,274.121233 716.15926,267.63149 C715.121182,262.52355 714.140232,257.403587 713.02022,252.313681 C711.609306,245.903584 710.039787,239.528803 708.664202,233.111943 C708.499583,232.344776 709.121979,231.409297 709.379055,230.551211 C710.326931,231.16735 711.841577,231.595641 712.120453,232.434191 C713.105161,235.391657 713.695986,238.483621 714.378516,241.537264 C715.05804,244.578134 715.648113,247.63854 716.311852,250.682416 C717.958795,258.236877 720.754314,265.484772 721.179016,273.389381 C721.383475,277.191408 723.995583,280.804836 724.959244,284.64368 C725.917643,288.461486 726.408494,292.439337 726.680604,296.375863 C726.987291,300.820327 726.832444,305.296349 726.851236,309.758846 C726.854995,310.551561 726.728712,311.345779 726.662563,312.139245 C726.25064,312.182826 725.839467,312.226406 725.427544,312.270738" id="Fill-23"></path>
                </g>
            </g>
        </g>
    </g>
</svg>