<?xml version="1.0" encoding="UTF-8" standalone="no"?>
<svg width="72px" height="623px" viewBox="0 0 72 623" version="1.1" xmlns="http://www.w3.org/2000/svg" xmlns:xlink="http://www.w3.org/1999/xlink">
    <!-- Generator: Sketch 3.8.3 (29802) - http://www.bohemiancoding.com/sketch -->
    <title>anahkay-logo-vert-wht</title>
    <desc>Created with Sketch.</desc>
    <defs></defs>
    <g id="issue-01-grid" stroke="none" stroke-width="1" fill="none" fill-rule="evenodd">
        <g id="PG!" transform="translate(-8.000000, -15.000000)" stroke="#FFFFFF" fill="#FFFFFF">
            <g id="anahkay-logo-vert-wht" transform="translate(8.000000, 15.000000)">
                <g>
                    <path d="M28.1784275,12.0010173 C28.8893535,11.6578597 29.4042142,11.279177 29.9732574,11.160256 C31.4124984,10.8596782 31.2224813,9.87606049 30.8779808,8.97760235 C30.506767,8.00935372 29.9122705,7.12676851 29.4150507,6.20689451 C29.3180261,6.21772841 29.2210014,6.22881427 29.1239768,6.23964817 C28.8225703,8.0756169 28.5214159,9.91158562 28.1784275,12.0010173 L28.1784275,12.0010173 Z M20.6200814,44.0522391 C20.1677197,44.0522391 19.861273,43.9895032 19.5913681,44.0618132 C16.8502328,44.7980148 14.1050653,45.5236344 11.3901392,46.3480188 C11.0426146,46.4535864 10.6283067,47.1192416 10.6507358,47.5017036 C10.6981141,48.310971 11.0249737,49.101846 11.2170069,49.9050665 C12.0602393,53.4278488 14.390847,55.6346898 17.5929124,57.0279802 C18.2468837,57.3126851 18.796018,57.1461453 18.8610371,56.2076269 C18.9230321,55.3116883 19.1790764,54.4308667 19.3058384,53.5369437 C19.7486236,50.4172834 20.1725079,47.2951036 20.6200814,44.0522391 L20.6200814,44.0522391 Z M46.6325155,52.1698563 C47.0992419,51.6087608 47.3701548,51.360085 47.5480754,51.0567357 C48.7504249,49.0063564 49.9744476,46.9668111 51.10951,44.879395 C52.1679607,42.9325678 53.2508565,40.9819612 54.0824964,38.9353613 C54.6333948,37.5798636 54.7896423,36.0578261 55.0688716,34.6000362 C55.3118113,33.3317136 55.4793993,32.0490298 55.7271272,30.4753423 C54.1679285,31.0875839 52.842093,31.5814083 51.5374265,32.125875 C48.3978601,33.4355175 45.2552695,34.7398691 42.1504808,36.1278685 C41.7412132,36.3107851 41.2109798,37.065883 41.3049803,37.3921599 C41.820597,39.1784942 42.5259788,40.9093993 43.1413923,42.668019 C43.615427,44.0232647 44.0186463,45.4039575 44.5156141,46.750385 C45.1544647,48.48129 45.8553103,50.1892675 46.6325155,52.1698563 L46.6325155,52.1698563 Z M25.9183832,15.7908679 C25.5330567,16.0151045 25.1787278,16.1383087 24.9367962,16.3761507 C23.137178,18.1443445 21.3468842,19.9228683 19.5817916,21.7260834 C18.9442011,22.3776293 18.3466805,23.0765421 17.7965381,23.8034214 C16.4467615,25.5862284 15.0324697,27.3098269 14.0428183,29.3612139 C13.4127881,30.6670772 11.2865623,35.3125543 10.9717992,36.6191735 C10.383855,39.0595732 10.1477197,41.5060198 10.2701976,44.0230128 C10.321608,45.0789404 10.8160557,45.2117187 11.4944722,44.9947887 C14.4011795,44.0655925 17.2857097,43.06585 20.1629315,42.0482189 C20.4469491,41.9476903 20.7665004,41.5808493 20.8317715,41.2850586 C21.5318611,38.1112287 22.2138057,34.9326118 22.8428279,31.7439169 C23.8765814,26.5035829 24.8672408,21.2549346 25.9183832,15.7908679 L25.9183832,15.7908679 Z M31.5642097,12.5122264 C30.5291961,12.9889181 29.7421624,13.3471928 28.9586568,13.713026 C28.0589737,14.1332807 27.2220416,14.5270805 27.2434627,15.7991823 C27.2595914,16.7628958 27.0347967,17.7427342 26.8289028,18.6961177 C26.0501855,22.302044 25.2293822,25.898648 24.4420965,29.5025586 C24.3370074,29.9837855 24.3707771,30.4947426 24.2765245,30.9792448 C23.6543067,34.177262 23.0046196,37.3697362 22.4149114,40.5735483 C22.3899622,40.7096019 22.9486729,41.1502647 23.1008882,41.0928198 C25.9090588,40.0326089 28.670607,38.8451627 31.4966704,37.8381136 C33.7781357,37.0253189 36.1263842,36.3959447 38.4574959,35.7290297 C39.2430175,35.5042892 39.6245638,35.1646589 39.3208892,34.3080247 C37.9146619,30.3410523 36.4693726,26.3869295 35.1425291,22.3937542 C34.2287333,19.6439583 33.5160432,16.8281512 32.6413093,14.0650019 C32.4676729,13.516756 31.9644048,13.0730698 31.5642097,12.5122264 L31.5642097,12.5122264 Z M55.4667987,26.0422602 C55.6318666,23.0715031 54.116518,20.9805597 53.0880567,18.8314156 C52.217103,17.0113198 50.5906171,15.5122098 49.1481,14.0158714 C47.0634561,11.8536258 44.3359295,10.7800616 41.445603,10.3270532 C40.2878596,10.1456483 38.8944848,9.48654387 37.7448057,10.7216089 C37.5134587,10.9700328 36.8196694,10.751843 36.3506749,10.8233972 C35.4071418,10.9672613 34.4631045,11.1305257 33.5399843,11.367108 C33.3746644,11.4094358 33.1715427,11.8737819 33.220181,12.09046 C33.6291966,13.9120675 33.9653807,15.7651689 34.5714697,17.5235366 C35.370348,19.8414881 36.4187182,22.0727683 37.3141171,24.3592259 C38.0716654,26.2929517 38.1636498,28.415137 39.1220517,30.3201404 C39.774763,31.6176893 40.0126624,33.1195707 40.5083701,34.5040428 C40.5837217,34.714422 41.0965663,34.9515082 41.3314415,34.8895282 C42.3568787,34.6189325 43.3891201,34.3201183 44.3560904,33.8905415 C47.2998435,32.5824106 50.1846257,31.1379741 53.1533279,29.8910674 C54.5953409,29.2856286 55.5723918,28.5227202 55.5235014,26.8563147 C55.5119089,26.4625149 55.4688148,26.0697229 55.4667987,26.0422602 L55.4667987,26.0422602 Z M21.9219758,43.2021556 C21.697433,44.5110423 21.4955713,45.7929702 21.2528837,47.0670877 C21.0666468,48.0441546 20.7513797,49.0018213 20.6294058,49.985187 C20.3559727,52.1859811 20.1188294,54.3943338 19.9744265,56.6067177 C19.9336005,57.2315568 19.9346086,58.0040393 20.9308123,58.2265122 C21.9131553,58.4457098 22.8292192,58.9458331 23.8040019,59.2164287 C27.0468933,60.1174063 30.297597,59.9836202 33.4820215,58.9828699 C35.2841599,58.4167354 37.0084265,57.6062083 38.7783072,56.9342543 C40.5136624,56.2754018 42.2840472,55.7044803 43.9969732,54.9939778 C45.0060296,54.5754868 45.5811211,53.8685116 45.1267434,52.60548 C44.3160205,50.3527839 43.6194592,48.0587678 42.8760235,45.7818844 C42.0814295,43.3485393 41.2006473,40.9386256 40.5333193,38.4710151 C40.2281327,37.3415177 39.6474969,36.9953367 38.6724622,37.2334306 C35.0704536,38.1134963 31.5611855,39.282802 28.1383575,40.7164046 C26.0900034,41.5742986 24.014684,42.367945 21.9219758,43.2021556 L21.9219758,43.2021556 Z M7.73016791,45.5314449 C8.3770829,45.4654336 8.6421996,45.44301 8.44840231,44.4974369 C8.05425543,42.5740411 7.87230272,40.5579273 8.58398481,38.6229417 C8.63766338,38.4778178 8.97183139,38.4357419 9.03911861,38.4060117 C8.93402958,37.9847492 8.71981932,37.608334 8.77627002,37.2782779 C9.2498007,34.5126091 10.0131453,31.8509961 11.7787419,29.583183 C11.9007157,29.4267213 11.9130643,29.1893832 12.0158852,29.0125134 C12.5609873,28.0747509 13.075596,27.1153205 13.681433,26.2178702 C14.6952776,24.7162408 15.6887092,23.1884084 16.8419164,21.7968817 C18.0742554,20.3098655 19.3958067,18.8714758 20.8360557,17.5885401 C22.4794265,16.1247033 24.327431,14.8921578 26.0161639,13.475436 C26.4115708,13.1438681 26.624017,12.4981171 26.748259,11.9576817 C27.1728993,10.1091154 27.543105,8.24719569 27.8918897,6.38250453 C28.2084169,4.69191167 28.4450562,2.98620174 28.7751921,1.29838035 C28.8482756,0.924736655 29.1663148,0.598963695 29.3714526,0.251270977 C29.5813787,0.571249058 30.026432,0.950183731 29.963177,1.20188302 C29.5100593,3.01139687 30.8565598,4.32935383 31.1685507,5.92017399 C31.3159778,6.67300431 31.6372932,7.39459268 31.9089622,8.11945641 C32.2713555,9.08594139 32.7995728,9.43766533 33.9822655,9.22879774 C36.2516342,8.82794331 38.6142474,8.38148571 40.8679913,8.61907573 C43.3167927,8.87732576 45.8013797,9.63947827 48.0485713,10.6666835 C49.544263,11.3504792 50.7730738,12.7770271 51.9023399,14.0634902 C53.3521654,15.7147786 54.7651971,17.4547539 55.848345,19.3534585 C56.6973736,20.8419865 57.0769038,22.6142115 57.5491744,24.2929627 C57.728103,24.9288876 57.4907076,25.6716399 57.6048691,26.338051 C57.8140391,27.5607703 58.1711402,27.7336089 59.2421915,27.118092 C61.3152429,25.9258587 63.3194949,24.6104213 65.4225356,23.4763887 C66.1750437,23.0704953 67.1304214,23.0405131 68.0056594,22.8361806 C68.6067081,24.5204747 67.2700361,24.6761805 66.6778077,25.0299201 C64.8522323,26.1203651 62.9084632,27.0205869 60.9762866,27.9213126 C60.2411674,28.2642182 59.3843264,28.3425751 58.6398827,28.6708675 C58.2669048,28.8351397 57.8215995,29.2528749 57.7533042,29.6199679 C57.4274526,31.3677537 57.2424758,33.1412385 56.9619863,34.8983465 C56.8009506,35.9058995 56.6260542,36.9220189 56.3266639,37.8937948 C55.9219325,39.2067127 55.5025844,40.5362595 54.8906991,41.7594828 C53.7732776,43.9940384 52.551523,46.1797154 51.2934788,48.3396934 C50.3668304,49.9310175 49.5145256,51.6394989 48.2683259,52.9539285 C46.496933,54.822147 47.8275567,56.4081801 48.375179,58.0219278 C49.522842,61.4028616 50.8343128,64.728618 52.1021855,68.0679798 C52.7662373,69.8167734 53.5583113,71.5209717 54.1444913,73.2944565 C54.512681,74.4090888 54.6190301,75.6126599 54.8191277,76.7802019 C54.9531981,77.5622586 55.0459385,78.351118 55.1573279,79.1369539 C55.0479546,79.1739907 54.9385814,79.2110276 54.8289561,79.2480644 C54.3725623,78.2949328 53.8161196,77.3755627 53.4784234,76.382119 C52.5366543,73.6114111 51.7629773,70.7822506 50.7786181,68.0279196 C49.5979415,64.7248388 48.2680738,61.4751716 47.0004531,58.2033327 C46.9709677,58.1274954 46.893852,58.0695466 46.8673907,57.9934573 C46.0115577,55.5160208 45.745181,55.4346405 43.3626589,56.5316362 C42.4329863,56.9597014 41.3944446,57.1441297 40.4335225,57.5124824 C38.794436,58.1405969 37.1795427,58.8316991 35.5507886,59.4867724 C32.866356,60.5666354 30.1128721,61.2081033 27.1975965,60.7311596 C24.8818575,60.3524769 22.5729229,59.928191 20.2498757,59.6056934 C19.9751825,59.5676487 19.3839622,60.0196493 19.3552328,60.2889851 C19.1488349,62.2141446 19.1072529,64.1571926 18.8935467,66.0813443 C18.7846775,67.0624424 18.357769,68.004992 18.2025296,68.9853343 C18.0430059,69.9936432 18.1445668,71.0483111 17.940941,72.0437705 C17.6619637,73.4083384 17.2131302,74.7391449 16.8018465,76.0734787 C16.7675728,76.1853451 16.4661664,76.2145714 16.3136991,76.2727721 C16.2237308,74.893843 15.99818,73.570595 16.0924325,72.2705266 C16.1836609,71.0115262 16.6496312,69.7845237 16.8701418,68.5293026 C17.3802142,65.6260684 17.855761,62.7165354 18.315683,59.8047348 C18.5351855,58.4152237 17.187677,58.2786662 16.4734747,57.9843871 C12.2563047,56.2461755 9.56456378,53.3094317 8.81583592,48.7675066 C8.6903339,48.00611 8.44235402,47.6455678 7.73016791,47.5470548 L7.73016791,45.5314449 Z" id="Fill-1" stroke-width="0.5"></path>
                    <path d="M71.4012448,540.210479 C71.1356241,540.324865 70.7069516,540.372735 70.6288278,540.563714 C69.6013746,543.073149 68.6429727,545.610802 67.626608,548.124771 C66.8224375,550.114682 65.9275426,552.06806 65.1412649,554.064522 C64.7095683,555.16051 64.4298349,556.315706 64.0624013,557.437645 C63.6564098,558.676741 63.2330295,559.910295 62.8091452,561.143344 C62.4177705,562.282164 61.9890979,563.40889 61.6256965,564.556276 C61.2774158,565.656295 60.9452639,566.765888 60.6993002,567.891606 C60.5816105,568.430782 60.6791392,569.017072 60.6791392,569.647706 C60.3749606,569.581191 60.0297041,569.505606 59.6249727,569.416919 C58.922363,571.1511 58.2452066,572.86336 57.5337765,574.561512 C57.1973404,575.36448 56.7822765,576.134191 56.4261835,576.929349 C55.686024,578.582905 54.9516608,580.239233 54.2329224,581.902363 C53.535101,583.517874 52.8166145,585.126331 52.1873404,586.768549 C51.5641145,588.394895 51.0542941,590.064324 50.4708862,591.70629 C49.6652036,593.974355 48.8116387,596.225539 48.025109,598.500155 C46.9590979,601.583283 46.021865,604.713777 44.8714299,607.764403 C43.7837458,610.648236 42.4790793,613.449682 41.2941186,616.297487 C40.4536583,618.317884 39.65352,620.355162 38.8352368,622.385133 C38.6616005,622.340034 38.4879641,622.294935 38.3143278,622.250087 C38.6495039,620.893582 38.8647222,619.492985 39.3425371,618.188633 C40.8180678,614.163208 42.3747463,610.16701 43.9367172,606.173834 C45.1420909,603.091715 46.5132886,600.070063 47.6115572,596.951411 C48.9419289,593.17315 49.9343525,589.273953 51.3108424,585.514336 C52.63819,581.88901 54.267196,578.373786 55.7666679,574.811699 C56.5247202,573.011256 57.3104938,571.222402 58.045361,569.412888 C58.6690909,567.877749 58.2043806,566.894383 56.8664485,566.349161 C56.6832358,565.416437 56.7427106,564.486737 56.333947,563.865173 C54.9927388,561.826384 53.4416045,559.926672 52.0527659,557.917612 C51.4053469,556.981362 50.5732031,556.222736 50.4595456,554.823399 C50.4035989,554.134312 50.1606593,552.996501 49.5502861,552.191516 C48.879934,551.307671 48.4348806,550.255775 47.8509687,549.30214 C47.4452292,548.639508 46.9515376,548.031549 46.5304254,547.377736 C44.790282,544.677574 43.0488786,541.977917 41.3346925,539.261127 C39.4897121,536.33698 37.7377242,533.352366 35.8304968,530.470044 C33.3670788,526.746456 30.698019,523.196211 27.3971648,520.118879 C26.4533796,519.238813 26.1935552,517.625569 25.6199757,516.348428 C25.7870597,516.23757 25.9541437,516.126711 26.1214797,516.015853 C26.9322026,516.872235 27.7328449,517.738695 28.5566724,518.582228 C29.3875562,519.433067 30.2829551,520.224194 31.0727609,521.110559 C31.7988077,521.925117 32.4384143,522.819292 33.0858334,523.700618 C33.7372846,524.587738 34.3345532,525.514163 34.9872644,526.400275 C35.4751598,527.062403 36.1651689,527.394727 36.3221724,528.505076 C36.4756477,529.589726 37.8430652,530.461981 38.5232458,531.526223 C39.0519672,532.353631 39.3432931,533.332714 39.7392041,534.244777 C39.7709576,534.318347 39.7734777,534.431725 39.8274083,534.464479 C41.3835828,535.410304 41.7043942,537.323118 43.0408142,538.506029 C43.870186,539.239963 44.16378,540.565226 44.7413917,541.600746 C45.3457166,542.68464 45.9916236,543.745607 46.6377825,544.805314 C47.6475949,546.460633 48.6591714,548.115449 49.6964531,549.753888 C50.4361085,550.922438 51.3121025,552.014143 51.9585134,553.229807 C52.7178258,554.657615 53.2783007,556.189983 53.9577252,557.66163 C54.2576196,558.31116 54.517696,559.046354 55.0073555,559.527329 C56.1698872,560.66892 57.0960315,561.900206 57.6098842,563.474397 C57.7999013,564.056908 58.3092177,564.574416 58.7719118,565.018102 C59.2489707,565.475646 59.7842443,565.363024 60.0211357,564.718532 C61.1521658,561.642711 62.2731155,558.562608 63.3585315,555.47041 C64.2352815,552.972565 64.996106,550.432897 65.9212423,547.953696 C66.6508173,545.998555 67.585782,544.121014 68.3687836,542.184517 C69.4106015,539.607308 70.3931965,537.006415 71.4012448,534.4156 L71.4012448,540.210479 Z" id="Fill-3" stroke-width="0.5"></path>
                    <path d="M23.5747213,194.194471 C22.9741766,194.160961 22.2919799,193.967211 21.6967274,194.117878 C19.5054824,194.67217 17.3570795,195.397034 15.1635664,195.940493 C14.2046605,196.178083 13.9806217,196.720534 14.0400966,197.546934 C14.0950352,198.313622 14.2039044,199.076782 14.2540548,199.843974 C14.3427631,201.196448 14.1847515,202.608887 14.5239598,203.892074 C15.2197651,206.524461 16.2394059,209.07068 17.8933612,211.275757 C18.6428451,212.275248 19.3119371,213.460175 20.7723471,213.711118 C21.7010116,207.24227 22.6246358,200.811718 23.5747213,194.194471 M39.432329,189.057437 C38.3355724,185.696911 37.3650739,182.564149 36.2884784,179.468172 C35.1067938,176.068594 33.8434572,172.696983 32.5763405,169.328143 C32.3386932,168.696249 31.8611303,168.304213 31.0592279,168.510057 C30.5882173,168.630742 30.0746167,168.58539 29.4720558,168.620916 C29.1275553,170.330153 28.7487812,172.015959 28.4536751,173.716378 C27.9131092,176.830243 27.4166454,179.951667 26.9126212,183.071579 C26.4965493,185.646521 26.0242787,188.215668 25.7135478,190.803711 C25.509922,192.500603 25.7762988,192.628342 27.4995573,192.17231 C29.9929648,191.51245 32.4878843,190.859644 34.9833078,190.207594 C36.4107042,189.834455 37.8398647,189.468873 39.432329,189.057437 M20.290752,172.527168 C20.2418617,172.843115 20.2816796,173.159313 20.1473571,173.357347 C19.4278627,174.418062 18.6766147,175.457865 17.9127661,176.487337 C17.4886298,177.058763 16.8505352,177.52966 16.6020513,178.161301 C15.9329593,179.86172 15.3528275,181.605223 14.8679562,183.367622 C14.4337394,184.945845 14.0101071,186.558836 13.8793129,188.180647 C13.7313818,190.018631 14.049673,191.893904 13.9040101,193.732392 C13.8147978,194.858866 14.0973033,194.799658 14.9659889,194.609183 C17.5788501,194.035993 20.2148964,193.569884 22.8312857,193.011812 C23.2710468,192.918086 23.9272862,192.653285 24.0200267,192.333055 C24.3574708,191.171056 24.5225387,189.955643 24.7077676,188.753332 C25.2269125,185.386255 25.675998,182.007589 26.2437812,178.649079 C26.7354567,175.740806 27.3717872,172.856972 27.867243,169.949454 C27.9000045,169.755956 27.2306605,169.191333 26.9693239,169.239456 C24.9466751,169.613351 23.2062797,170.632242 21.5485443,171.812382 C21.1375126,172.105149 20.6680141,172.315529 20.290752,172.527168 M40.6447591,188.848569 C41.3892027,188.663385 42.2112661,188.408662 43.0517264,188.258499 C47.3593687,187.489544 51.6740674,186.760145 55.9812057,185.990182 C57.6729628,185.687589 58.0091469,184.559351 56.8587118,183.22401 C56.4839698,182.789142 56.0033828,182.376194 55.8138697,181.863473 C54.8428672,179.237385 53.125909,177.172897 51.0412651,175.394121 C49.6940086,174.244467 48.1738717,173.28932 46.8820578,172.085497 C45.6802123,170.965574 44.379326,170.214255 42.8075267,169.723454 C41.4524577,169.300428 40.2899261,169.028321 38.7869261,169.379793 C37.5142651,169.677095 36.0024447,169.035879 34.6151182,168.726231 C33.8041434,168.545078 33.6972902,168.745379 33.9613989,169.467976 C34.4679432,170.854211 34.9261011,172.258084 35.4071922,173.653894 C37.1244024,178.637993 38.8428727,183.621589 40.6447591,188.848569 M40.7392636,190.300816 C41.2014537,191.496577 41.5976167,192.571149 42.0313295,193.630352 C42.5557666,194.912028 43.1883169,196.154652 43.6336222,197.462278 C44.1063969,198.850026 44.3127948,200.330743 44.8142988,201.705641 C46.0322731,205.045759 47.3835619,208.33725 48.618169,211.671825 C49.0460855,212.827021 49.2794487,213.044455 50.3585644,212.385855 C51.6498742,211.597499 52.8164381,210.603803 54.1140483,209.828046 C56.383417,208.471036 57.8556715,206.440813 58.6225443,204.038206 C59.2303974,202.13421 59.2981886,200.05788 59.6011071,198.057135 C59.6109356,197.99188 59.5645654,197.919822 59.5534769,197.849528 C59.3349824,196.460268 59.0416403,195.077308 58.9209266,193.679482 C58.784336,192.098236 58.868256,190.498094 58.7283893,188.917352 C58.6520297,188.052151 58.3980015,187.11968 57.1633944,187.237845 C55.0759784,187.437642 52.9767178,187.563618 50.9061866,187.877549 C48.4820825,188.245146 46.0736031,188.736955 43.6779764,189.264289 C42.6981534,189.479959 41.7694889,189.92944 40.7392636,190.300816 M44.7288667,206.088333 C44.6603194,206.082286 44.5915201,206.075988 44.5229728,206.069941 C44.5451499,205.594257 44.6323461,205.111266 44.5784155,204.644401 C44.3410201,202.590242 42.1989175,201.227438 42.4920075,198.948035 C42.5209889,198.721783 41.9743747,198.467816 41.895243,198.173033 C41.645499,197.243837 41.519997,196.281887 41.2924301,195.345636 C40.9945518,194.120649 40.5716756,192.921613 40.3428486,191.685288 C40.1755126,190.781287 39.8116071,190.328027 38.8738702,190.47819 C38.1024613,190.601898 37.325256,190.709229 36.5672037,190.891642 C34.6660246,191.348933 32.7751781,191.848553 30.8785352,192.324237 C29.579413,192.650262 28.2913793,193.061698 26.9720961,193.254945 C25.8037681,193.42602 24.9093773,193.981824 24.8015161,194.920342 C24.6813063,195.965184 24.5772254,197.013049 24.4209779,198.052852 C23.6319281,203.303264 22.8038164,208.547881 22.0724774,213.806356 C22.0092223,214.26138 22.4338627,215.080725 22.8340578,215.248777 C24.1024346,215.780646 25.4438949,216.221308 26.7987118,216.447309 C29.8382294,216.954235 32.9029482,217.033599 35.9870719,216.744611 C37.8995915,216.565222 39.8957792,216.891751 41.7400035,216.47981 C43.6389145,216.055525 45.3951866,215.001361 47.2212661,214.24072 C47.9974633,213.917466 48.0047716,213.538784 47.615413,212.808125 C46.7873013,211.253838 46.091496,209.62724 45.3805699,208.013241 C45.1086489,207.395708 44.943077,206.731313 44.7288667,206.088333 M22.1324562,216.798781 C20.0281554,222.993758 20.0760377,229.603447 18.6403249,235.907267 C18.4271227,235.877285 18.2136685,235.847051 18.0004663,235.817068 C18.1249603,234.120933 18.2045961,232.419758 18.3842807,230.729417 C18.6975317,227.778312 19.0243913,224.826955 19.4399593,221.889204 C19.6700463,220.26311 20.019587,218.644324 20.4560719,217.06081 C20.687419,216.222316 20.4442274,215.771072 19.8439346,215.254823 C18.5906786,214.176472 17.3333903,213.087539 16.2013521,211.886487 C14.4758255,210.05581 13.3735246,207.813191 12.9073023,205.377579 C12.4478843,202.977995 12.3485915,200.510133 12.0832228,198.073008 C12.0071152,197.374347 11.5315684,197.149103 10.9227072,197.273819 C9.76496378,197.510905 8.53640493,197.634613 7.49231891,198.131209 C6.39379829,198.654008 5.52007243,198.647457 4.58586368,197.780745 C5.05536217,197.573389 5.56871076,197.269032 6.12389336,197.116853 C7.55103773,196.726077 8.99733501,196.405595 10.4348119,196.051603 C11.6527862,195.75153 11.8236504,195.262492 11.7127651,193.981068 C11.5766786,192.411412 11.7062128,190.820592 11.669671,189.240102 C11.6537943,188.547488 11.3269346,187.818341 11.4652892,187.175613 C11.7349422,185.922408 12.1759633,184.695657 12.6482339,183.498385 C13.5012948,181.334627 14.32109,179.146683 15.3613959,177.072368 C16.1338129,175.531686 17.2739155,174.179968 18.1756147,172.698746 C19.4283667,170.641313 21.5283833,169.73454 23.5331393,168.758229 C24.7317088,168.174458 26.0968581,167.920743 27.4010206,167.569523 C28.2213199,167.348562 28.4927369,166.856753 28.5443994,166.036652 C28.6882983,163.758257 28.912841,161.485152 29.1053783,159.209781 C29.2182797,159.160398 29.3311811,159.111016 29.4440825,159.061381 C29.6897943,159.491714 29.996997,159.898615 30.1693732,160.356411 C30.7472369,161.890542 31.3407254,163.423917 31.8102238,164.992818 C32.5244261,167.378796 34.4195568,167.202178 36.3282963,167.386102 C38.4807314,167.593458 40.6001529,168.148759 42.7329311,168.559187 C46.7328667,169.328899 49.5102918,172.074411 52.4575729,174.557391 C54.6830915,176.432412 56.2891645,178.743309 57.5162113,181.35957 C58.0240156,182.442457 58.7472902,183.428342 59.2120005,184.526346 C59.577922,185.39079 60.2092123,185.312182 60.8359663,185.208126 C63.3520548,184.790895 65.8631031,184.339398 68.3675991,183.857163 C69.0790292,183.720102 69.7529095,183.344694 70.4638355,183.270369 C70.7120674,183.244166 71.0207822,183.794427 71.3017757,184.081652 C71.0016293,184.292787 70.7269361,184.622843 70.3968003,184.693641 C69.2279683,184.943829 68.0362032,185.085677 66.8600629,185.304875 C64.859087,185.677763 62.8573551,186.05191 60.8742721,186.504667 C60.6585498,186.554049 60.3717601,187.172338 60.4400553,187.446209 C60.9775971,189.597872 61.4218944,191.701161 60.9166102,193.972754 C60.6978637,194.955616 61.3029447,196.093427 61.3175614,197.163968 C61.3349502,198.445644 61.1303164,199.731603 61.0038063,201.013783 C60.935007,201.709421 60.747258,202.402287 60.7535584,203.094901 C60.7822877,206.237992 58.7069683,208.156853 56.6177882,209.954021 C55.1916519,211.180772 53.460329,212.053279 51.8650926,213.084012 C51.6932203,213.195122 51.5326886,213.338986 51.3446876,213.407517 C49.9364442,213.921246 49.6143727,214.494687 50.1614909,215.895032 C51.0634422,218.203409 52.041249,220.482056 52.9847822,222.774308 C54.0016509,225.244438 54.9187228,227.761179 56.0578174,230.173361 C57.2329497,232.661379 58.6963838,235.012588 59.8851247,237.494812 C60.4042696,238.57921 61.0925146,239.735918 60.5433803,241.395773 C59.3997495,239.413673 58.2493144,237.697129 57.3755885,235.850074 C55.4242591,231.724624 53.5749945,227.549288 51.7559713,223.363118 C50.809162,221.184496 49.97475,218.953972 49.1665473,216.719164 C48.6557188,215.306473 48.5236645,215.175711 47.1489386,215.769056 C46.1295498,216.208963 45.1628315,216.786183 44.1207616,217.155544 C41.2528642,218.171915 38.264253,218.055262 35.2854703,217.948182 C34.7275156,217.928026 34.1408315,217.756699 33.6179064,217.876124 C30.8029316,218.51986 28.0829653,217.747377 25.3370418,217.394897 C24.2858994,217.260103 23.2493737,217.010168 22.1324562,216.798781" id="Fill-6" stroke-width="0.5"></path>
                    <path d="M34.2589999,428.882092 C33.5339612,427.157234 32.9049391,425.661148 32.275917,424.165061 C32.1186614,424.160022 31.9614059,424.154983 31.8041504,424.149944 C31.5717952,425.687602 31.3394401,427.225009 31.0889401,428.882092 L34.2589999,428.882092 Z M47.2799597,477.942291 C52.0586126,474.975061 57.5585241,463.532947 57.2911393,457.431192 C52.483001,456.772339 47.6630181,456.111975 42.4962665,455.404244 C44.4725452,463.086741 45.1449134,470.589597 47.2799597,477.942291 L47.2799597,477.942291 Z M41.169675,454.117025 C40.9975508,453.276264 40.8886815,452.594736 40.7160533,451.929584 C40.3030055,450.340528 39.8377912,448.764825 39.4330598,447.173753 C38.4217354,443.199978 37.4502288,439.215873 36.4235316,435.246129 C36.1037283,434.009048 35.7234421,432.778014 35.241595,431.596867 C35.0173043,431.047109 34.5752751,430.382714 34.072259,430.192743 C33.0420337,429.803478 31.8774859,429.577226 30.9153038,430.456284 C30.7429275,430.613753 30.7416675,430.990168 30.7154582,431.270842 C30.6020528,432.488018 30.5803797,433.718044 30.3943948,434.923379 C29.9004512,438.122656 29.2419436,441.299509 28.8367082,444.508864 C28.540342,446.855034 28.5443742,449.238745 28.4080357,451.605575 C28.3636815,452.377302 28.5368138,452.795793 29.480347,452.88322 C32.0743073,453.123329 34.6518868,453.533002 37.2410588,453.830808 C38.4844864,453.973917 39.7395065,454.016245 41.169675,454.117025 L41.169675,454.117025 Z M9.30678063,448.93338 C9.83121776,449.255626 10.1873108,449.494979 10.5628088,449.698556 C10.8417862,449.849979 11.1353802,450.017526 11.4408189,450.069932 C14.4672318,450.589204 17.4936448,451.109735 20.5278702,451.580128 C22.5003687,451.885997 24.4824436,452.13946 26.4682987,452.335982 C26.7503003,452.363948 27.3200995,451.962086 27.3458048,451.716182 C27.600841,449.279057 27.7321393,446.829335 27.9733148,444.390447 C28.1895412,442.205778 28.477087,440.027408 28.7749652,437.85206 C29.0599909,435.770439 29.416084,433.698644 29.6920372,431.616267 C29.7258068,431.361544 29.4359929,430.820353 29.3306519,430.829171 C28.3891348,430.906772 27.4214084,430.966989 26.5262615,431.243379 C23.9449019,432.040553 21.9358616,433.678236 20.0145216,435.56006 C17.0236423,438.490001 14.6146589,441.847251 12.236169,445.248341 C11.672418,446.054333 11.0527203,446.821021 10.4579718,447.606857 C10.4864491,447.725526 10.5744014,448.091359 10.7354371,448.761801 C10.2566141,448.396724 10.0718893,448.255883 9.84936263,448.08632 C9.63112017,448.426706 9.41842198,448.75903 9.30678063,448.93338 L9.30678063,448.93338 Z M36.0177922,430.347693 C36.9036146,433.105047 37.7733083,435.536377 38.4544969,438.019608 C39.0116956,440.050587 39.3057937,442.152112 39.7841126,444.206775 C40.4819341,447.205247 41.2447746,450.188349 41.9700653,453.180522 C42.1867957,454.075453 42.7593672,454.482354 43.6522459,454.562223 C44.8122575,454.666279 45.970505,454.797545 47.1257283,454.947204 C50.0793098,455.329918 53.027347,455.760755 55.9849607,456.106936 C57.201927,456.24954 57.6930985,455.758739 57.6522726,454.571041 C57.6311036,453.956028 57.4269738,453.349582 57.3717831,452.733057 C57.1318677,450.054059 56.3075362,447.567552 54.8569547,445.312085 C53.3831881,443.020084 51.7627505,440.820046 50.3398903,438.498063 C48.7121443,435.841238 46.4074939,434.018118 43.6396453,432.465595 C43.5607655,433.109582 43.4982665,433.621547 43.4098103,434.343639 C42.6971202,434.064729 42.0302962,433.941525 41.5353445,433.581487 C40.5184758,432.841758 39.6548304,431.881824 38.6082243,431.195257 C37.9608053,430.770719 37.0926237,430.682284 36.0177922,430.347693 L36.0177922,430.347693 Z M8.75033798,457.140944 C8.8634914,457.159084 8.97639281,457.177225 9.08954623,457.195113 C9.08954623,458.970362 9.0472082,460.747122 9.10239884,462.520607 C9.1495251,464.029291 8.99176554,465.648834 9.48444914,467.017937 C10.5325674,469.930241 11.9352665,472.683564 14.0798893,475.04334 C16.4503148,477.651287 19.3177082,479.253949 22.6629164,480.160973 C23.4282771,480.368581 23.6596242,480.005519 23.7579089,479.408395 C23.9118883,478.4729 23.9937922,477.525311 24.157096,476.59158 C24.6535598,473.754609 25.3355045,470.939558 25.6492595,468.083438 C26.1729406,463.317277 26.4670387,458.52592 26.8740382,453.543584 C21.0631438,452.769086 15.0891976,451.191619 8.9262424,450.97217 C8.77931937,451.591214 8.6694421,452.05304 8.55528063,452.534771 C9.16792198,452.376294 10.0051061,451.677633 9.60566695,453.179011 C9.31282892,454.281045 9.27149894,455.449847 9.11676353,456.597737 L8.11299945,456.597737 C8.15231333,456.995064 8.1913752,457.392139 8.26168657,458.102894 C8.53511967,457.564222 8.64272882,457.352583 8.75033798,457.140944 L8.75033798,457.140944 Z M24.9637867,479.443668 C25.2168068,479.843263 25.4431136,480.655806 25.8460809,480.755326 C27.4425774,481.150386 29.0892243,481.487497 30.7267987,481.537635 C33.0687469,481.609441 35.4195155,481.339349 37.7659999,481.347412 C40.3718048,481.35623 42.6973722,480.37236 45.053181,479.491539 C45.845759,479.195244 46.3628878,478.640951 45.8752444,477.621305 C45.6103797,477.067516 45.5894627,476.394554 45.4737892,475.772235 C45.0078189,473.262548 44.5602454,470.749335 44.0826825,468.241664 C43.4120784,464.720897 42.7311418,461.202146 42.0318083,457.687174 C41.816842,456.606303 41.7571151,455.367963 40.2742761,455.16867 C38.7506111,454.964085 37.2254341,454.76328 35.6962248,454.607322 C33.7396031,454.407777 31.7424074,454.427177 29.8293838,454.030102 C28.1691282,453.685685 27.8848586,453.611107 27.6945895,455.772597 C27.5045724,457.929551 27.3314401,460.088018 27.1371388,462.244468 C27.0925326,462.738293 26.9592183,463.224307 26.9206604,463.718131 C26.7359356,466.089748 26.6689004,468.475475 26.3710221,470.832227 C26.0177012,473.62687 25.470835,476.397326 24.9637867,479.443668 L24.9637867,479.443668 Z M64.7930347,456.272972 C66.1823772,457.768806 68.2834019,456.62394 69.934585,457.737816 C69.1435191,457.815165 68.3537132,457.934338 67.5611353,457.958526 C66.6740528,457.985736 65.7841981,457.921993 64.8956036,457.906372 C64.0425427,457.891507 63.1894818,457.8842 62.336169,457.879665 C61.4851242,457.875382 60.6338274,457.878909 59.9959849,457.878909 C59.685506,459.530198 59.5675643,461.121774 59.0690845,462.583847 C58.309016,464.813615 57.3133163,466.966035 56.3627268,469.127272 C55.9058289,470.165564 55.4149094,471.211161 54.7783269,472.143633 C53.5341433,473.964988 52.2443455,475.765936 50.8330779,477.458292 C50.2554662,478.151158 49.3673757,478.659344 48.5251514,479.040294 C47.2487102,479.617263 47.5178591,480.621288 47.7154366,481.540406 C48.288512,484.207058 48.9717168,486.850027 49.5757897,489.510632 C49.9502796,491.159653 50.2650427,492.822531 50.5959346,494.481378 C50.9419471,496.217322 51.2413375,497.963092 51.6254039,499.69047 C51.920006,501.016238 52.3065925,502.321849 52.6652057,503.633003 C53.3751237,506.229865 54.1074708,508.820427 54.8045362,511.420312 C55.4007967,513.645042 55.886676,515.902021 56.5585402,518.102815 C57.1447203,520.023188 57.9554431,521.87377 58.6023581,523.777009 C59.0048214,524.960676 59.2749783,526.188687 59.6295593,527.389234 C59.7757263,527.883311 60.0599959,528.344129 60.1562645,528.844253 C60.374759,529.980553 60.5156338,531.131718 60.7321121,532.570108 C59.2646458,530.66586 57.9282258,529.036743 57.4551991,526.769182 C57.2679542,526.553512 56.9577273,526.196497 56.5812213,525.762637 C57.0282907,525.543691 57.3435578,525.389497 57.8392655,525.14712 C57.0366071,522.651291 56.1926187,520.160753 55.4375905,517.643256 C54.6205674,514.920167 53.8688153,512.177174 53.1210955,509.433929 C52.2304849,506.165617 51.335086,502.89781 50.5180628,499.610602 C50.0357117,497.669065 49.7171685,495.687469 49.2963083,493.729808 C48.684675,490.88553 48.0412882,488.048055 47.4233546,485.205037 C47.1531976,483.962162 46.8802686,482.718027 46.6695865,481.464317 C46.5271996,480.616249 46.0418244,480.659333 45.4128023,480.822849 C43.1391493,481.413171 40.8904456,482.198251 38.5779828,482.520749 C34.5674627,483.079829 30.5340095,483.066223 26.5875005,481.885328 C25.0661036,481.430304 24.8299683,481.680239 24.6321388,483.233519 C24.3584537,485.38493 23.863754,487.508628 23.5973772,489.660795 C23.2813541,492.211297 22.8489014,494.791026 22.9630628,497.335734 C23.0389185,499.028594 23.0593314,500.648137 22.6795492,502.282545 C22.6452756,502.429936 22.5570714,502.572541 22.4635749,502.693729 C22.4325774,502.733789 22.3058153,502.700028 22.1505759,502.700028 C21.1808335,499.619672 21.6218546,496.497996 22.0326343,493.396476 C22.4945724,489.910731 23.0797444,486.441614 23.5885568,482.961915 C23.6586161,482.483208 23.5983853,481.985352 23.5983853,481.674948 C21.0555835,480.594581 18.5858651,479.652032 16.2144315,478.505402 C14.1227313,477.494321 12.5388355,475.880826 11.1250477,473.987916 C9.53283546,471.856408 8.65079321,469.466399 7.769759,467.036581 C7.7029758,466.851901 7.55076051,466.61683 7.61023536,466.480021 C8.21456031,465.089502 7.33856635,463.833021 7.14854925,462.556384 C6.76473486,459.976151 7.49229371,457.582866 7.77253114,455.112736 C7.84284251,454.494196 7.81688526,453.865326 7.85619914,453.242502 C7.88114834,452.848199 7.86829572,452.426936 8.00513828,452.068661 C8.56460508,450.606084 8.59257842,450.561741 7.09587872,450.298452 C4.73250951,449.882732 2.35553164,449.544362 -2.52012072e-05,448.94497 C2.23380981,449.085307 4.47092098,449.188355 6.69996776,449.382105 C7.75312621,449.473564 8.32620166,449.342549 8.93531484,448.207509 C10.1686619,445.909209 11.1043827,443.381131 13.2827751,441.637628 C14.0645165,441.012033 14.3772635,439.832649 15.0146021,438.989368 C17.434674,435.787068 20.0087253,432.687816 23.6611363,430.845044 C25.0217494,430.158729 26.6583158,429.975309 28.1930694,429.69136 C29.3445125,429.478461 30.1030689,429.270349 30.252008,427.779554 C30.5196448,425.097029 31.1403506,422.449273 31.6136292,419.787156 L31.9820709,419.779598 C32.0727952,420.368912 32.08842,420.983421 32.276169,421.539729 C32.4505613,422.056985 32.8555447,422.492105 33.0770633,422.998779 C33.7867293,424.622101 34.6269376,426.216952 35.0818194,427.912584 C35.3552525,428.932734 36.0157761,429.180654 36.7078013,429.32855 C38.1513264,429.63719 39.7004446,429.551023 41.0882751,429.995465 C42.568846,430.469637 43.9627248,431.287219 45.3044371,432.102785 C46.9132821,433.08086 48.4354351,434.203555 49.9752288,435.291732 C50.3043566,435.524283 50.6070231,435.840986 50.8214854,436.181876 C51.8922847,437.88557 52.9177218,439.617735 53.9852449,441.323445 C54.3463782,441.900413 54.7939517,442.422456 55.1838143,442.982292 C55.572921,443.54112 55.970344,444.097932 56.3087962,444.687246 C56.9121131,445.737631 57.5003093,446.798849 58.0436473,447.881232 C58.3682389,448.528243 58.7001388,449.202716 58.8450457,449.902889 C59.2011388,451.623212 59.4806202,453.361171 59.7341443,455.100391 C59.9516307,456.592194 60.1537444,456.828776 62.1784094,456.806605 C63.047095,456.79703 63.9120005,456.462943 64.7930347,456.272972 L64.7930347,456.272972 Z" id="Fill-8" stroke-width="0.5"></path>
                    <path d="M24.1897064,79.2655498 C24.4759921,80.2851965 24.933142,81.2917417 25.0122738,82.3270094 C25.1657491,84.3368245 26.3371013,85.9820661 26.7599775,87.8759836 C26.8575062,88.313119 26.7743422,88.7908186 26.6841219,89.2501257 C27.5694403,93.6887508 28.126135,98.2274005 29.4333216,102.583386 C30.820396,107.204927 31.2677175,111.986206 32.1600922,116.691648 C33.0476787,121.370634 34.1348588,126.01208 35.1441672,130.667887 C36.1534755,135.324198 37.1746284,139.977989 38.4702225,144.646898 C38.6998055,143.315839 39.0611908,141.992088 39.1352823,140.652463 C39.3963669,135.929889 39.4634021,131.194969 39.7882456,126.477686 C40.0659629,122.44571 40.6408025,118.43515 41.0004237,114.407458 C41.2516797,111.592406 41.3784418,108.765765 41.5306571,105.942652 C41.7708246,101.492185 41.9094312,97.0349153 42.2350308,92.5909992 C42.4983835,89.0022057 42.9565414,85.4267656 43.3625328,81.8493098 C43.6228613,79.554034 43.971646,77.2683323 44.2128216,74.9712928 C44.2503714,74.6145298 43.9237637,74.2194703 43.8484121,74.039829 C44.2284463,72.804764 44.5857994,71.6440246 44.9431526,70.4832853 C45.0724348,70.4696799 45.2014649,70.4560745 45.3307471,70.4424692 C45.5058955,71.2278012 45.6810439,72.0131332 45.7687441,72.4074369 C45.4912788,74.8120596 45.2735404,76.8901535 45.0059036,78.9616966 C44.7488513,80.9521114 44.4441687,82.9362275 44.1535987,84.9221072 C43.7881812,87.4207077 43.220398,89.9079704 43.0911158,92.4184126 C42.8844659,96.4347674 43.0001395,100.466995 42.9081551,104.490908 C42.8786697,105.787702 42.5843196,107.075928 42.4820027,108.373981 C42.2607361,111.177695 42.13347,113.989722 41.8726375,116.789405 C41.716642,118.463369 41.3424041,120.115917 41.1367622,121.786858 C40.9669061,123.169314 40.8870183,124.563864 40.7917577,125.954635 C40.6811244,127.567123 40.5949363,129.181375 40.5021958,130.795122 C40.4071873,132.443639 40.3209991,134.09266 40.2237225,135.741177 C40.0790676,138.192915 39.9250882,140.644148 39.7806853,143.095886 C39.6735801,144.914974 39.5049841,146.734314 39.5014559,148.553906 C39.4994398,149.551129 39.8101707,150.54558 39.9278603,151.547591 C40.0072441,152.221812 39.9966596,152.906616 40.0246329,153.586884 C40.0382416,153.91694 40.0568905,154.247248 40.0581506,154.577304 C40.0626868,155.638271 40.0599146,156.698986 39.7625404,157.879125 C39.5120404,157.541511 39.1267139,157.237406 39.0334695,156.860738 C38.5193648,154.784156 38.0470942,152.695984 37.6174136,150.600002 C37.1897491,148.512586 36.8276078,146.411564 36.4400132,144.315834 C36.2840178,143.472049 36.1673362,142.61995 35.9798392,141.783472 C35.2351435,138.458723 34.4425655,135.144809 33.720803,131.815021 C33.1744408,129.293997 32.6910816,126.758863 32.2109986,124.224234 C31.2752778,119.282966 30.360978,114.337919 29.4386138,109.394384 C28.690894,105.385587 27.7670178,101.420883 26.6914302,97.4846482 C26.2811546,95.9835227 26.3053477,94.3657438 26.1060062,92.8044019 C25.9366541,91.475611 25.7428568,90.1493397 25.5243623,88.8276035 C25.4986571,88.6731573 25.246393,88.556252 24.9008845,88.241061 C24.7678221,89.4378294 24.5956978,90.4292575 24.5584001,91.4257247 C24.4386943,94.6124041 24.3802275,97.801351 24.2771546,100.988786 C24.161733,104.560699 23.9691958,108.130848 23.9145092,111.703265 C23.8767074,114.174655 24.0889016,116.650076 24.0508477,119.121465 C24.0243865,120.851866 23.6960147,122.575969 23.6262074,124.307882 C23.5463196,126.294769 23.6257034,128.287956 23.5879016,130.277363 C23.5745449,130.980558 23.3867959,131.678715 23.3363935,132.383423 C23.1625052,134.825083 23.0458236,137.271529 22.8396777,139.710417 C22.762058,140.630543 22.5294509,141.542103 22.3162486,142.4456 C21.9813246,143.866101 21.6030545,145.27602 21.1196953,146.687451 C20.9321983,144.83183 20.1985912,143.042976 21.0864297,141.10018 C21.5622285,140.058866 21.6423684,138.80566 21.7507336,137.634087 C22.0050137,134.883031 22.2217441,132.126181 22.3540505,129.366811 C22.4805605,126.732409 22.4601475,124.091204 22.5460837,121.454282 C22.5914458,120.057212 22.783227,118.664174 22.8084282,117.267356 C22.8983965,112.266124 22.9195655,107.26338 23.0231425,102.2624 C23.0566601,100.642605 23.2915354,99.0281016 23.3827637,97.4080551 C23.4976812,95.3695175 23.6567009,93.3264449 23.6226792,91.2879074 C23.5669846,87.9523248 23.3348814,84.6197657 23.2653261,81.2839312 C23.2522215,80.6532973 23.6501485,80.013845 23.8583105,79.3786759 C23.9689438,79.3408832 24.0793251,79.3033425 24.1897064,79.2655498" id="Fill-11" stroke-width="0.5"></path>
                    <path d="M58.1279454,314.337019 C57.8300671,312.476359 57.5596581,310.61066 57.2285143,308.755795 C56.7050852,305.824594 56.116133,302.905235 55.6005163,299.972775 C55.0246687,296.698668 54.5448377,293.407429 53.9410168,290.138866 C53.2270666,286.274689 52.4039952,282.430669 51.670388,278.57002 C51.2868257,276.551639 51.0257411,274.51033 50.6482271,272.490689 C50.3936949,271.129144 50.0320575,269.787756 49.7188065,268.437297 C49.2838337,266.562024 48.8390324,264.689018 48.4184242,262.81047 C48.0782079,261.290448 47.7231229,259.771182 47.4635505,258.236547 C47.3380485,257.493291 47.4663226,256.710982 47.3937432,255.954624 C47.2382517,254.33231 47.0943528,252.704453 46.8229358,251.099524 C46.4199685,248.716065 45.8791506,246.356038 45.4600545,243.974847 C45.2498765,242.78085 45.1997261,241.55939 45.0402024,240.355063 C44.8494293,238.912642 44.6153101,237.475764 44.4068961,236.035359 C44.1090178,233.977673 43.8227321,231.918224 43.5213257,229.861042 C43.3499574,228.691232 43.0714841,227.529233 43.0094891,226.354636 C42.9749635,225.698807 43.2441124,225.010728 43.4696632,224.369764 C43.5240978,224.214311 43.9517623,224.113278 44.1982301,224.129907 C44.3559896,224.140489 44.6047256,224.397983 44.6279107,224.569562 C45.053055,227.723991 45.4812235,230.878421 45.8385767,234.040913 C45.9950762,235.426897 45.866802,236.851681 46.096133,238.220532 C46.4451697,240.304421 47.0202613,242.349257 47.4433895,244.42206 C47.6371868,245.372168 47.7170746,246.347472 47.8148553,247.314712 C47.933049,248.481751 47.9879876,249.655088 48.1195379,250.820362 C48.3282039,252.67044 48.5187251,254.525809 48.8266838,256.360518 C49.1298543,258.167764 49.5509665,259.956114 49.9551939,261.744968 C50.2369434,262.990867 50.6406667,264.211571 50.8780621,265.464776 C51.314043,267.766603 51.6202376,270.093624 52.0705832,272.392428 C52.4385208,274.27022 52.9974836,276.110724 53.3586169,277.989525 C53.6290259,279.395161 53.6348221,280.851943 53.9100193,282.256067 C54.342724,284.464923 54.9553654,286.638255 55.3885741,288.84686 C55.6254655,290.054714 55.635798,291.305652 55.7784368,292.533662 C55.8253111,292.936532 56.0067598,293.323277 56.0584222,293.726147 C56.1814041,294.68583 56.1705676,295.671463 56.3815017,296.608974 C56.8320993,298.61123 57.4623815,300.574686 57.8711451,302.584249 C58.0674625,303.549978 57.7887371,304.610693 57.973966,305.580705 C58.2388307,306.968705 58.8643246,308.292205 59.0820631,309.682976 C59.2380586,310.679695 59.8290269,311.736882 59.0263684,312.801628 C58.745879,313.173508 58.8224906,313.814724 58.7360505,314.332988 C58.5334328,314.334248 58.3305631,314.335759 58.1279454,314.337019" id="Fill-13" stroke-width="0.5"></path>
                    <path d="M31.2391141,249.404018 C31.447024,249.571818 31.8247901,249.761789 31.8033691,249.877183 C31.4949063,251.528975 32.468933,253.067893 31.9601206,254.836591 C31.5216196,256.359888 31.9626407,258.126066 31.9525603,259.784661 C31.9397076,261.864015 31.9601206,263.950927 31.7864843,266.019447 C31.6163762,268.045135 32.0163193,268.549793 34.055349,268.412984 C37.6031749,268.17489 41.1515049,267.941331 44.702607,267.767737 C45.1766418,267.744557 45.6680653,268.082172 46.1516765,268.252743 C46.1259712,268.459847 46.100266,268.667202 46.0745608,268.874306 C45.2635859,268.958458 44.4541231,269.076875 43.6408802,269.120715 C41.1872906,269.252989 38.7289129,269.312954 36.2783475,269.486296 C34.6085155,269.604209 32.948764,269.865231 31.5538772,270.030511 C31.5538772,271.35779 31.5551372,272.454786 31.5536252,273.551781 C31.549845,276.257738 31.5468208,278.963442 31.5395125,281.669398 C31.5332122,284.092917 31.509271,286.516436 31.5168314,288.939704 C31.5218716,290.484417 31.5790784,292.028626 31.5962152,293.573087 C31.6143601,295.209762 31.5732821,296.847949 31.6327569,298.482861 C31.6821513,299.839114 31.9717132,301.196628 31.9185386,302.544063 C31.8376428,304.593182 31.5526171,306.633988 31.3542836,308.678572 C31.1506578,308.683359 30.9470321,308.688398 30.7436584,308.693437 C30.6380653,308.085227 30.5027348,307.480292 30.4324234,306.86805 C30.255511,305.33014 30.0808666,303.79097 29.9654451,302.247768 C29.9324315,301.808113 30.1753711,301.352334 30.1708349,300.905372 C30.1408455,298.081755 30.0337403,295.258389 30.0362605,292.435275 C30.0387806,289.495508 30.1506739,286.555993 30.1882237,283.616226 C30.2260256,280.642445 30.1751191,277.666397 30.2663475,274.694632 C30.359592,271.660635 30.6279848,268.631929 30.7280336,265.598184 C30.8230422,262.712587 30.9503082,259.814895 30.7943128,256.937108 C30.5228958,251.934868 29.9901423,246.952281 30.297093,241.923334 C30.4533404,239.36754 30.255763,236.823589 29.4694853,234.309619 C29.107092,233.150643 29.4296674,231.771966 29.4888902,230.495329 C29.4954426,230.356 29.8492675,230.095482 29.9833379,230.12874 C30.2444224,230.192988 30.5531372,230.372629 30.6864516,230.597117 C31.6188963,232.169293 31.4480321,233.969233 31.5027187,235.665621 C31.6206604,239.339322 31.4974265,243.020329 31.4949063,246.698314 C31.4944023,247.384125 31.633765,248.070188 31.6302368,248.755496 C31.6292288,248.974189 31.3744446,249.191623 31.2391141,249.404018" id="Fill-15" stroke-width="0.5"></path>
                    <path d="M69.437844,428.423541 C68.9766619,427.742517 68.5061553,427.067539 68.0555577,426.379712 C66.2887011,423.681819 65.6790839,420.537215 64.6518827,417.553356 C64.1022444,415.956489 63.5248847,414.369449 62.9757504,412.772582 C62.0294451,410.020014 61.1796604,407.230914 60.1333062,404.517147 C59.0395738,401.68068 57.7253309,398.929624 56.5741397,396.114069 C55.2533445,392.882794 54.032346,389.610704 52.718607,386.376405 C51.4572866,383.271106 50.1445557,380.186467 48.8320769,377.10208 C47.7635457,374.59063 46.5697645,372.128311 45.5964939,369.581084 C43.9994934,365.40222 41.6031106,361.6421 39.5232549,357.251094 C38.5414159,358.69805 37.7352293,359.87189 36.9434073,361.055305 C35.6898993,362.929067 34.3363425,364.747147 33.2310175,366.70506 C32.2826961,368.385071 31.1917358,369.989497 32.1912157,372.279985 C32.8524954,373.79522 32.5619255,375.723655 32.7131327,377.465646 C32.7307735,377.669474 32.8524954,377.863477 32.9197826,378.06403 C33.0828344,378.550296 33.3159456,379.026988 33.3900371,379.526859 C33.6652343,381.378953 33.9076699,383.236841 34.1216282,385.096997 C34.2383098,386.110345 34.2728354,387.133267 34.3441548,388.147623 C34.0435044,388.279393 33.6838832,388.437367 33.1470975,388.672941 C32.7592509,385.852347 32.4775014,383.031501 31.9598686,380.254494 C31.4266111,377.392328 30.6179043,374.582064 30.0231558,371.729724 C29.7744199,370.537742 29.8626241,369.276474 29.6269929,368.08021 C29.274176,366.288081 28.7444466,364.531729 28.3404712,362.74867 C28.0262122,361.361174 27.7996533,359.954278 27.5151317,358.55998 C27.2442187,357.232197 26.9438203,355.910713 26.664843,354.584442 C26.1600628,352.184102 25.6381458,349.787038 25.1671352,347.379896 C24.6270733,344.617502 24.0590381,341.857376 23.6464944,339.074827 C23.3486161,337.065516 23.1812801,335.023199 23.1454944,332.99222 C23.1081966,330.870538 22.3398118,328.968055 21.7213741,327.009386 C21.447941,326.143681 21.9454129,324.538752 22.8710532,323.754679 C23.2969536,325.228594 23.8854018,326.592154 24.0509737,328.005097 C24.2603958,329.793195 24.0482016,331.626896 24.1719395,333.430111 C24.2356986,334.360315 24.6565588,335.261797 24.8748012,336.185954 C25.1799878,337.479471 25.4934908,338.773997 25.7187896,340.082884 C26.0433812,341.967227 26.3548681,343.857869 26.5574858,345.758086 C26.8556161,348.556256 27.9551448,351.141276 28.5713143,353.847484 C29.1441377,356.364981 29.3832972,358.956551 29.8505276,361.500755 C30.1494139,363.128612 30.5959793,364.729258 31.0831186,366.794503 C33.3376186,364.345285 34.4825095,361.545351 36.2425618,359.191874 C38.0530165,356.771126 39.6480009,354.189634 41.3742836,351.623259 C41.6358721,351.8029 41.9377826,352.010508 42.0426196,352.082818 C42.3047122,351.257677 42.4667559,350.452945 42.8125165,349.7369 C43.2144758,348.904201 43.5693088,347.872712 44.8359214,348.268276 C44.7570416,347.886318 44.6985748,347.603124 44.640108,347.319931 C44.9720079,347.399548 45.3041599,347.478913 45.6363118,347.558529 C45.6846981,347.514942 45.7333364,347.471606 45.7817227,347.428018 C45.5035014,347.212096 45.2255321,346.996174 44.8439858,346.700131 C45.3185245,346.433567 45.7552615,346.188166 46.1718374,345.954356 C46.0670004,345.683256 45.808436,345.308353 45.8956322,345.191447 C46.3369053,344.600118 46.5163379,343.503626 47.8525059,344.207074 C46.8348812,343.428292 46.998941,343.071529 47.7829506,342.3575 C48.7695779,341.458789 49.419013,340.192734 50.2279717,339.095487 C50.6677328,338.499118 51.1183304,337.908041 51.611014,337.356771 C51.6858616,337.273375 52.0172574,337.419255 52.3582298,337.482747 C52.0570754,334.867997 53.9436377,333.374682 55.1454833,331.52536 C56.2140145,329.881126 57.1875371,328.173904 58.1681161,326.474745 C58.8241035,325.338445 59.3999511,324.156542 60.0468661,323.014951 C60.8139908,321.660965 61.6186654,320.328394 62.4072112,318.986502 C62.5450618,319.029334 62.6829124,319.072417 62.821015,319.115249 C62.6108369,320.328394 62.5821075,321.613346 62.1395743,322.734781 C61.7015774,323.844374 60.8187791,324.772562 60.1791724,325.810098 C59.0710754,327.60777 58.0499224,329.460871 56.8962112,331.228057 C56.0814561,332.475972 55.035102,333.572967 54.220851,334.821386 C52.82168,336.967507 51.5575874,339.202062 50.1639607,341.351962 C49.6342313,342.169544 48.9031443,342.856615 48.2325401,343.639427 C48.5941775,344.172052 47.7479209,345.226972 46.8852836,345.365042 C46.8033797,345.8891 46.8638626,346.354454 46.6655291,346.639411 C44.8089561,349.304551 42.9155894,351.943992 41.0166785,354.579403 C40.233929,355.665564 40.2309048,356.807407 40.7959159,357.940936 C42.2568299,360.871381 43.8591226,363.735311 45.2267922,366.707832 C46.6115985,369.717641 47.7683339,372.831759 49.0566196,375.886667 C49.4676513,376.861215 50.0152735,377.77731 50.4396619,378.746818 C51.4776996,381.119443 52.5117051,383.494587 53.4849758,385.893919 C54.0388983,387.259243 54.4426216,388.684531 54.9640346,390.063712 C55.5479466,391.609181 56.1462232,393.151878 56.8175834,394.66031 C57.3163153,395.78099 58.0279974,396.809959 58.4906915,397.942731 C59.2837735,399.88452 59.9122916,401.893075 60.6894969,403.841918 C61.7797011,406.575841 63.0198525,409.251815 64.0460457,412.008413 C64.658687,413.653907 64.888522,415.439486 65.4666377,417.100852 C66.0298847,418.718631 66.8615245,420.24092 67.4940748,421.837284 C68.0857992,423.331102 68.5736946,424.866493 69.1019119,426.385255 C69.3151141,426.998253 69.5144556,427.616289 69.7200975,428.231806 C69.626097,428.295802 69.5320965,428.359545 69.437844,428.423541" id="Fill-17" stroke-width="0.5"></path>
                    <path d="M39.7440427,418.970557 C39.1495462,416.157521 38.5482454,413.345745 37.9628214,410.530694 C37.5104597,408.356607 37.078763,406.178488 36.6367339,404.002386 C36.2887052,402.289621 35.9598294,400.572825 35.5843314,398.866107 C35.1113048,396.716711 34.5851036,394.579157 34.1239215,392.427493 C34.0687308,392.170251 34.2773968,391.856572 34.363585,391.568844 C34.6813722,391.775444 35.1891765,391.919056 35.282673,392.200233 C35.6128088,393.191913 35.8108903,394.228693 36.0397173,395.252623 C36.2675362,396.272269 36.4653656,397.298467 36.6878923,398.319121 C37.2400508,400.852239 38.1772837,403.282561 38.3196705,405.933088 C38.3882178,407.208213 39.2639597,408.419595 39.5870392,409.706814 C39.9083546,410.986978 40.0729185,412.320808 40.1641468,413.64078 C40.2669678,415.131072 40.2150533,416.631946 40.2213536,418.128284 C40.2226136,418.394093 40.1802756,418.660405 40.1580985,418.926466 C40.0199959,418.941079 39.8821453,418.955944 39.7440427,418.970557" id="Fill-19" stroke-width="0.5"></path>
                </g>
            </g>
        </g>
    </g>
</svg>